<svg width="100" height="100" viewBox="0 0 100 100" fill="none" xmlns="http://www.w3.org/2000/svg">
<g clip-path="url(#clip0_6270_21194)">
<path d="M13.4099 61.9969C13.6428 62.0241 13.8602 61.8613 13.8952 61.6285L14.3067 59.0504C14.4813 57.957 14.3067 56.8365 13.8059 55.8516C13.309 54.8709 13.0217 53.8007 12.9557 52.7034C12.9169 52.0637 12.7344 51.4436 12.4161 50.8853L12.3734 50.8076L12.3695 50.8115C11.6514 49.5515 11.0768 48.21 10.6614 46.8219L10.545 46.4303C10.4518 46.132 10.5954 45.8062 10.8788 45.6706C11.2748 45.4768 11.5193 45.0657 11.4999 44.6238C11.4805 44.2243 11.3718 43.8406 11.1738 43.4954L10.2926 41.9406C9.95879 41.3552 9.90832 40.6497 10.1529 40.0254L10.2926 39.6648C10.4557 39.2501 10.5217 38.8003 10.479 38.3545L10.4518 38.0598C10.4091 37.6178 10.4557 37.172 10.5877 36.7455L10.8128 36.0205C10.8478 35.8964 11.0224 35.8925 11.0652 36.0127L11.2864 36.6175C11.3602 36.823 11.5543 36.9626 11.7717 36.9704C12.0007 36.982 12.2064 36.823 12.2569 36.5982C12.3889 35.9972 12.7654 35.4777 13.2973 35.1636L16.6863 33.1553C16.8493 33.0584 17.059 33.0778 17.1987 33.2058C17.4316 33.4151 17.7655 33.4616 18.045 33.3259L20.8633 31.9767C21.1699 31.8293 21.5154 31.7789 21.8493 31.8332C22.284 31.903 22.7305 31.8565 23.1381 31.6975L23.5884 31.5231C24.4114 31.2052 25.1451 30.7011 25.7352 30.0459C25.8827 29.883 25.9992 29.7008 26.0884 29.4992L26.2864 29.0495V29.0533C26.4339 28.7122 26.6785 28.4253 26.989 28.2198C27.4471 27.9174 27.6257 27.328 27.4044 26.8241C27.2414 26.448 27.3113 26.0138 27.5869 25.7113L28.2274 25.0057V25.0096C28.3439 24.8817 28.5108 24.8196 28.6777 24.8351C28.8485 24.8545 28.9999 24.9476 29.0853 25.0949L29.8462 26.3665C29.9316 26.5061 30.1373 26.4906 30.1994 26.3394L30.4673 25.688V25.6919C30.5682 25.4477 30.5022 25.1646 30.2965 24.994L30.0131 24.7575C29.8229 24.5986 29.7879 24.3194 29.9316 24.1178C30.0946 23.8852 30.3857 23.7805 30.6614 23.858L31.2243 24.0131H31.2204C31.3252 24.0403 31.4378 24.0209 31.5232 23.955C31.6125 23.8891 31.6629 23.7844 31.6629 23.6758C31.6629 22.7259 32.1443 21.838 32.9479 21.3263L35.6614 19.5778C36.2554 19.1939 37.0277 19.2327 37.5831 19.6708L38.9185 20.7292H38.9146C39.2019 20.9541 39.5511 21.082 39.9121 21.0937L40.6613 21.1208V21.1247C41.0342 21.1363 41.3952 21.2759 41.6823 21.5124C41.7679 21.5861 41.8803 21.6055 41.9891 21.5706C42.0939 21.5395 42.1716 21.4504 42.1987 21.3457C42.2801 21.02 42.1832 20.675 41.9425 20.4423C41.7289 20.2368 41.7173 19.9034 41.9153 19.6824L42.9555 18.5231V18.527C43.1807 18.275 43.1731 17.8912 42.9363 17.6469C42.8626 17.5694 42.8236 17.4608 42.8352 17.3523C42.8431 17.2437 42.9013 17.1468 42.9906 17.0847L43.9689 16.3985C44.6675 15.91 45.5215 15.7045 46.364 15.8208L46.5504 15.848H46.5464C47.1598 15.9294 47.7615 15.6269 48.0564 15.088L48.3556 14.5414V14.5375C48.472 14.3204 48.7398 14.2273 48.9726 14.3243L51.4222 15.3633H51.4183C52.3771 15.7705 53.4368 15.8751 54.458 15.6696L55.405 15.4796V15.4758C55.6923 15.4176 55.9912 15.5184 56.1853 15.7355C56.3833 15.9527 56.4144 16.2745 56.259 16.5265L53.7902 20.5625H53.7941C53.5611 20.9386 53.6738 21.4271 54.0424 21.6714L61.465 26.51C61.989 26.8512 62.6334 26.9558 63.2388 26.7969C63.9765 26.6069 64.5587 26.0408 64.7723 25.312L64.9782 24.6102V24.6063C65.537 22.6833 65.7701 20.6789 65.6653 18.6782L65.6302 18.0501C65.6071 17.6004 65.7932 17.1623 66.1348 16.8676L66.1969 16.8133C66.2862 16.7358 66.3252 16.6195 66.3057 16.507C66.2862 16.3946 66.2048 16.3016 66.0961 16.2628C66.0029 16.2279 65.9291 16.1542 65.8904 16.0612C65.8514 15.9681 65.8554 15.8634 65.8981 15.7743L67.0899 13.2503C67.1868 13.0409 67.4354 12.944 67.6527 13.0331C67.9089 13.1378 68.0991 13.3549 68.1731 13.6225L69.85 19.7909C69.9158 20.0313 70.1529 20.1863 70.3972 20.1437C71.0379 20.0429 71.686 20.2328 72.1714 20.6593C72.7265 21.1517 73.072 21.8341 73.1418 22.5708L73.2002 23.1989C73.274 24.0014 73.6387 24.7458 74.2288 25.2964C74.5628 25.6065 74.7337 26.0563 74.6907 26.5099L74.5899 27.6653C74.5472 28.1733 74.6325 28.685 74.8422 29.1503C75.0247 29.5574 75.3625 29.8753 75.7818 30.0304C76.8299 30.4258 77.8274 30.9454 78.7475 31.5773L79.5123 32.1046H79.5162C79.7179 32.2481 79.8072 32.504 79.7298 32.7366C79.6597 32.9615 79.6792 33.2019 79.788 33.4112L81.1971 36.1291C81.4573 36.6331 81.9658 36.9665 82.5325 37.0014L83.0721 37.0363C83.6428 37.0751 84.0852 37.5481 84.0852 38.118C84.0852 38.9244 84.4191 39.692 85.0092 40.2426L86.9735 42.0726H86.9774C87.7422 42.786 88.2041 43.7669 88.2623 44.8097L88.3515 46.3529V46.3569C88.3942 47.14 88.6312 47.9037 89.0349 48.5784C89.5318 49.4042 89.6598 50.4007 89.392 51.3272L88.3128 55.0337L88.3089 55.03C88.2702 55.1733 88.2778 55.3207 88.3323 55.4603C88.4564 55.7705 88.4603 56.1194 88.3439 56.4373L87.6179 58.3681C87.3927 58.9691 86.989 59.4886 86.465 59.8607C85.7468 60.3687 85.1917 61.0742 84.8694 61.8924L83.406 65.6145C83.006 66.6302 82.7305 67.6885 82.5791 68.7664L82.2647 71.0501C82.222 71.3408 82.0588 71.6044 81.8144 71.7674C81.4067 72.0347 80.9332 72.1745 80.4479 72.1745H79.7103C78.8679 72.1745 78.0526 72.4845 77.4237 73.0467L76.4572 73.9076C76.2126 74.1285 75.8905 74.2526 75.5606 74.2526H74.2249C73.8486 74.2526 73.472 74.1828 73.1186 74.0508L72.2685 73.7369C71.5659 73.477 70.7778 73.5858 70.1684 74.0237L69.8927 74.2215V74.2175C69.5667 74.4543 69.1514 74.5162 68.7708 74.3845L65.8399 73.3841L64.3844 72.8724C63.899 72.7017 63.4798 72.3839 63.1849 71.9612L62.1404 70.4686C61.9503 70.2011 61.9113 69.8558 62.0317 69.5535C62.1831 69.1814 62.1173 68.7627 61.8687 68.4525L60.6225 66.9054C60.3819 66.607 59.986 66.4751 59.6134 66.572L59.3648 66.6378H59.3688C59.26 66.6652 59.1476 66.6302 59.0778 66.5488C59.0077 66.4635 58.9883 66.3471 59.0312 66.2462L59.5668 65.0056C59.6832 64.7265 59.6329 64.4047 59.4349 64.1761C59.0894 63.765 58.9651 63.2339 58.6119 63.3579C58.3439 63.4508 58.1693 64.7033 58.1111 65.2266C58.0955 65.3624 57.9907 65.4709 57.8548 65.4941L56.7951 65.6724C56.7059 65.6879 56.6166 65.6648 56.5505 65.6066C56.4807 65.5484 56.4417 65.467 56.4417 65.378V64.9824C56.4417 64.8932 56.4768 64.8118 56.5429 64.7496C56.6048 64.6878 56.6903 64.6567 56.7757 64.6567L57.2686 64.6722C57.3969 64.6762 57.5054 64.5793 57.5172 64.4513L57.6452 63.0787C57.6684 62.8151 57.7966 62.5708 58.0023 62.4041L58.2857 62.1676C58.4682 62.0204 58.5382 61.7799 58.4721 61.5551L58.3828 61.2643H58.3868C58.3362 61.1013 58.3905 60.923 58.5227 60.8145C58.6857 60.6826 58.736 60.4577 58.6507 60.2678C58.5653 60.0896 58.3868 59.9771 58.1888 59.9811C57.9947 59.9848 57.8161 60.1012 57.7384 60.2834L57.257 61.4039H57.261C57.0746 61.8342 56.7175 62.1636 56.2711 62.3151C55.7818 62.4818 55.3744 62.8267 55.1298 63.2805L54.4156 64.5869C54.3571 64.6917 54.2523 64.7691 54.132 64.7923C54.0156 64.8157 53.8913 64.7847 53.7944 64.7072C53.5808 64.5287 53.4412 64.2806 53.3946 64.0091L53.2005 62.8578H53.1966C53.15 62.5747 52.9986 62.3187 52.7774 62.1444C52.5211 61.9427 52.3502 61.652 52.292 61.3341C52.2378 61.0199 51.9505 60.799 51.6281 60.8261C51.4923 60.8377 51.3603 60.7911 51.2555 60.7021C51.1547 60.6128 51.0925 60.4848 51.0886 60.3453L51.073 59.9732C51.0575 59.5194 50.8442 59.0931 50.4908 58.806C50.0365 58.4379 49.4737 58.2246 48.8875 58.2051L48.2197 58.1819V58.178C47.5716 58.1548 46.9388 57.9686 46.3837 57.6392C45.487 57.1041 44.435 56.8831 43.3985 57.0148C41.8455 57.2089 40.3279 57.6157 38.8874 58.2246L37.8549 58.6588C37.354 58.8682 36.8068 58.9496 36.2671 58.8914C35.3354 58.7868 34.396 59.0078 33.6041 59.5118L32.6452 60.1243V60.1204C32.4512 60.2447 32.2221 60.3066 31.9892 60.295C31.4884 60.2678 31.0187 60.5393 30.7936 60.9852L30.3899 61.7799C30.1259 62.3032 29.5824 62.629 28.9963 62.625L23.2665 62.5515C22.8356 62.5476 22.428 62.7569 22.1874 63.1135C21.8846 63.5517 21.3916 63.8116 20.8598 63.8116C20.689 63.8116 20.5298 63.889 20.4211 64.017C19.6758 64.9163 18.5384 65.3932 17.3777 65.2963C16.8031 65.2811 16.2286 65.2305 15.6618 65.1452C15.1882 64.8429 14.7689 64.4668 14.4195 64.0326C14.2177 63.8153 13.9343 63.6873 13.6354 63.6873C13.4491 63.6873 13.2744 63.6099 13.154 63.4703C13.0337 63.3308 12.9832 63.1446 13.0104 62.9624L13.088 62.249C13.0997 62.1715 13.1385 62.1018 13.1967 62.0551C13.2588 62.0088 13.3323 61.9854 13.4099 61.9969Z" fill="white"/>
<path d="M75.5763 86.9962C74.9009 86.9496 74.2991 86.558 73.9807 85.961L72.886 83.9101L72.89 83.9138C72.7812 83.7124 72.7501 83.4835 72.7928 83.2626C72.8473 82.964 72.7852 82.6577 72.6182 82.4096L72.4823 82.2079H72.4784C72.0747 81.6033 71.8574 80.8938 71.8574 80.1649C71.8574 79.9592 71.9583 79.7694 72.1329 79.6569C72.3038 79.5445 72.521 79.525 72.7114 79.6066L73.3985 79.905H73.3945C74.5203 80.3935 75.7857 80.444 76.9465 80.0446L78.0762 79.6569H78.0802C78.3361 79.5676 78.6234 79.6143 78.841 79.781C79.0311 79.9245 79.1359 80.153 79.1204 80.3895L79.035 81.5914V81.5954C78.9653 82.6111 78.6664 83.5999 78.1655 84.4916C77.9287 84.9103 77.6609 85.3098 77.3581 85.6858L76.6942 86.5077H76.6903C76.4224 86.8451 76.0032 87.0233 75.5763 86.9962Z" fill="white"/>
</g>
<defs>
<clipPath id="clip0_6270_21194">
<rect width="100" height="100" fill="white"/>
</clipPath>
</defs>
</svg>
