<svg width="100" height="100" viewBox="0 0 100 100" fill="none" xmlns="http://www.w3.org/2000/svg">
<g clip-path="url(#clip0_6270_21101)">
<path d="M82.2425 52.7835C80.2481 50.8643 78.9766 49.0493 78.2071 47.7923C77.1277 46.0263 76.7043 44.8091 76.5283 44.2558C76.1995 43.221 76.041 42.3151 75.9581 41.6605C76.2461 41.078 77.8725 37.6534 76.5283 33.7199C74.7812 28.606 69.646 27.4241 69.3608 27.3643C69.9253 28.025 70.4897 28.6872 71.0541 29.3479C69.019 28.2043 66.6303 27.0301 63.9012 25.9754C60.6513 24.72 57.6473 23.9182 55.0549 23.397C56.7483 24.4548 58.443 25.5125 60.1363 26.5702C57.3636 25.5094 54.0163 24.4824 50.1612 23.7941C47.5703 23.3311 45.1671 23.0966 43.0083 23C43.3108 23.3541 43.7123 23.7634 44.2302 24.1589C44.9052 24.674 45.5526 24.9913 46.0545 25.1906C43.4127 24.5237 39.8384 23.9826 35.6676 24.3888C34.0063 24.5513 32.4934 24.8395 31.1507 25.1829C33.5801 26.0214 36.0081 26.8615 38.4375 27.7C36.219 27.7337 33.7038 27.9146 30.963 28.3561C27.4207 28.9279 24.3352 29.8001 21.7735 30.7092C23.058 30.5789 24.8051 30.5451 26.8214 30.9345C28.4391 31.2457 29.7861 31.7424 30.819 32.2145C24.7193 33.7858 20.0787 35.9166 16.8463 37.6779C12.4486 40.0739 10.6869 41.7663 10.8236 42.0407C10.9822 42.3595 13.6153 40.6043 16.6586 41.4459C17.5445 41.6911 18.2384 42.0928 18.7287 42.4377C17.0907 43.5016 14.8635 45.223 12.7672 47.8781C9.86788 51.5495 8.58917 55.2669 8 57.5111C8.86848 57.0052 9.78351 56.4319 10.7305 55.7773C11.6427 55.1473 12.4806 54.5157 13.2429 53.8995C12.3991 54.9649 10.2534 57.9603 9.91007 62.4288C9.63803 65.9775 10.636 68.7215 11.2004 70.0061C11.1801 68.8334 11.3023 67.0904 12.034 65.1773C12.3526 64.345 12.725 63.6413 13.0829 63.0649C13.2618 64.1717 13.7346 66.1937 15.1529 68.2218C16.1945 69.7102 17.3583 70.6499 18.1643 71.1972C18.0493 70.6147 17.9446 69.6949 18.1643 68.6188C18.5876 66.5355 19.9259 65.3199 20.3856 64.9382C20.9297 64.9888 24.456 65.3781 26.6352 68.6188C28.0521 70.7266 28.1467 72.9217 28.1408 73.7756C29.7963 73.8384 31.5464 74.1374 31.9057 75.1644C32.4701 76.7786 29.2712 79.2528 29.6465 79.7265C29.872 80.0101 31.2729 79.4352 32.281 78.3376C33.3924 77.1297 33.6397 75.7102 33.7867 75.7592C33.9118 75.8006 33.8958 76.8614 33.4099 77.9406C32.5632 79.823 30.8088 80.6003 30.963 80.916C31.0518 81.0954 31.6657 80.9344 31.7166 80.916C35.7738 79.3908 37.6534 75.5768 36.798 72.9831C36.0881 70.8293 33.6499 69.9908 33.2004 69.8451C33.2135 69.0465 33.2266 68.2463 33.2397 67.4476C40.0508 66.5738 46.8619 65.7016 53.6729 64.8278C54.9575 65.1329 58.4838 66.163 61.0775 69.6121C62.2413 71.1604 62.8581 72.7163 63.1956 73.8584C68.1519 77.355 70.7705 78.914 71.0527 78.5369C71.2869 78.2227 69.9063 76.5702 66.9125 73.5779C71.5968 76.2973 74.0436 77.4884 74.2531 77.1481C74.448 76.8307 72.6922 75.1782 68.9826 72.189C72.9787 73.236 75.0168 73.6254 75.0983 73.3556C75.1958 73.0367 72.5292 71.7874 67.1002 69.6106C67.2951 69.2534 67.9512 67.9474 67.6646 66.2397C67.3431 64.322 66.0629 63.2826 65.7822 63.0665C66.5357 62.6035 67.2878 62.1406 68.0414 61.6776C67.2398 60.6705 65.2934 57.9403 65.0301 53.9424C64.6227 47.7631 68.5709 43.6395 69.1703 43.034C68.6756 43.6809 65.5669 47.8888 66.5357 53.5454C67.2355 57.6307 69.6561 60.1033 70.4882 60.8836C72.9351 59.694 75.382 58.5029 77.8289 57.3134C80.1593 57.2183 83.8311 57.0742 88.3684 56.9163C95.0398 56.6864 96.9615 56.6573 96.9994 56.297C97.0459 55.8739 94.5132 54.9649 82.2425 52.7835ZM30.2124 52.552C27.3378 53.642 24.84 53.1959 23.813 52.9491C27.4513 51.7595 31.091 50.5684 34.7293 49.3788C34.0209 50.1913 32.5414 51.6691 30.2124 52.552ZM50.9162 45.6109C52.3506 45.4913 53.6729 45.2767 54.8687 45.0161C55.4288 46.0631 55.9045 47.3048 55.4332 47.9915C55.068 48.5235 54.0774 48.8055 49.0338 47.3968C47.1673 46.8756 44.7205 46.1152 41.8808 45.0161C44.287 45.5342 47.3696 45.9067 50.9162 45.6109ZM60.5146 52.552C60.308 53.4565 58.6918 53.7569 57.3156 53.9409C52.1673 54.6292 46.5695 54.2015 46.5869 53.7431C46.6029 53.3384 50.9584 53.9639 57.1265 51.7595C58.1273 51.4023 58.958 51.0482 59.5734 50.7677C60.0258 51.1877 60.6629 51.9021 60.5146 52.552ZM61.7511 37.8435C60.164 37.7423 59.4439 35.9181 58.0168 34.6963C56.8792 33.7214 54.9647 32.8553 51.5447 33.2538C52.4248 32.9273 55.1451 32.0536 58.3906 33.122C61.4398 34.1276 63.1593 36.2599 63.7426 37.0571C63.2989 37.428 62.589 37.8971 61.7511 37.8435ZM72.5016 49.8556C71.7029 49.8556 71.0556 49.1734 71.0556 48.3319C71.0556 47.4903 71.7029 46.8081 72.5016 46.8081C73.3002 46.8081 73.9476 47.4903 73.9476 48.3319C73.9476 49.1734 73.3002 49.8556 72.5016 49.8556Z" fill="white"/>
</g>
<defs>
<clipPath id="clip0_6270_21101">
<rect width="100" height="100" fill="white"/>
</clipPath>
</defs>
</svg>
