<svg width="100" height="100" viewBox="0 0 100 100" fill="none" xmlns="http://www.w3.org/2000/svg">
<path d="M21.9376 19.0594C21.0399 17.3456 18.4283 17.4272 17.7754 17.5904C17.1225 17.7536 16.5513 17.5088 16.5513 17.5088L11.981 21.0997C11.6546 21.3445 11.4913 21.671 11.4097 22.079L11.3281 22.5687C11.3281 22.5687 14.5926 21.4261 15.4903 21.1813C17.449 20.6916 22.917 20.7732 21.9376 19.0594Z" fill="white"/>
<path d="M88.3663 51.2143C85.4282 47.5418 80.5316 41.0945 77.3487 36.361C74.1659 31.6276 67.5553 24.6906 64.2909 24.5274C61.108 24.3641 57.5171 25.5883 57.5171 25.5883L59.2309 23.8745C57.109 23.8745 47.5605 26.6493 41.8477 31.0563C36.1349 35.5449 32.2992 36.1162 30.9118 34.7288C29.5244 33.3414 27.7289 31.546 27.4025 29.6689C26.7496 25.0986 28.4634 23.7113 28.137 19.2226C27.7289 12.9385 22.3426 11.2247 19.5678 12.7753C16.8746 14.4075 16.793 16.3662 16.793 16.3662C17.3642 17.1007 18.67 16.3662 19.9758 16.6927C21.9345 17.2639 23.4035 18.4881 23.1587 19.8755C22.7506 21.5894 18.0171 21.7526 18.0171 21.7526C18.7516 22.4055 20.7919 24.3641 20.6287 26.9757C20.5471 27.6286 19.5678 32.8517 19.5678 32.8517C17.4459 46.9705 26.5863 50.3166 31.3198 54.3156C38.9913 60.7629 50.9882 59.3755 59.8838 59.3755C64.2092 59.3755 70.3301 59.7835 73.4313 59.2939C74.6555 59.049 75.0636 59.2122 76.2061 59.6203C76.6142 59.7835 77.0223 59.9468 77.5119 60.11C79.797 61.4158 82.8167 63.7009 84.2041 67.2918L85.3466 70.3114C85.3466 70.3114 86.2444 67.2918 85.8363 64.7618C85.8363 64.7618 86.9789 65.9044 86.9789 68.4343L88.3663 64.2722C88.3663 64.2722 91.3043 54.9685 88.3663 51.2143ZM23.5667 17.672C23.1587 17.672 22.7506 17.3456 22.7506 16.8559C22.7506 16.4478 23.0771 16.0398 23.5667 16.0398C24.0564 16.0398 24.3828 16.3662 24.3828 16.8559C24.3828 17.3456 23.9748 17.672 23.5667 17.672Z" fill="white"/>
<path d="M62.4966 77.8188C62.3334 73.9014 62.4967 71.8612 62.5783 70.8818C62.6599 69.9841 62.6599 69.576 62.007 67.5357C61.3541 65.4955 60.2115 60.6804 60.2115 60.6804C60.2115 60.6804 56.131 60.8436 53.1113 60.4355C53.1113 60.4355 57.3551 63.5368 58.4161 69.4128C58.4161 69.4128 58.3345 70.8002 59.3138 72.2692C59.3138 72.2692 60.538 81.6545 60.2931 85.5719C60.2931 85.5719 58.7425 86.8777 57.3551 87.0409C55.9677 87.2041 54.5803 88.1018 54.4987 88.8364C54.4987 88.8364 54.9884 88.5099 55.3964 88.5099C55.8861 88.5099 56.131 89.0812 57.9264 88.6731C59.7219 88.2651 61.6805 87.5306 62.3334 87.5306C62.3334 87.5306 62.0886 88.7547 62.415 88.9996C62.415 88.9996 65.0266 86.9593 63.476 85.4087C63.6392 85.3271 62.6599 81.7362 62.4966 77.8188Z" fill="white"/>
<path d="M51.6422 82.5525C51.7238 81.818 57.4366 70.8821 57.4366 70.8821L57.355 68.7602C57.355 68.7602 56.2124 63.6187 51.887 60.6807L50.2548 60.8439C50.2548 60.8439 52.4583 63.6187 53.0296 65.1693C53.6008 66.7199 54.2537 68.1073 54.2537 68.9234C54.2537 68.9234 53.6008 69.7395 53.6008 70.8005C53.6825 71.7798 53.7641 72.4327 53.7641 72.4327C53.7641 72.4327 50.6628 79.8594 49.2754 81.5732C49.2754 81.5732 48.5409 82.4709 48.5409 82.7974C48.5409 83.1238 47.9697 83.8583 47.9697 83.8583C47.9697 83.8583 46.1742 85.3273 45.2765 85.5722C44.3787 85.817 43.7259 85.6538 43.3178 86.3883C42.8281 87.1228 42.8281 87.1228 42.8281 87.1228C42.8281 87.1228 43.481 86.6331 43.9707 86.6331C44.542 86.6331 45.1132 87.286 46.5006 86.5515C47.888 85.8986 48.8674 85.8986 48.8674 85.8986L48.0513 86.6331C48.0513 86.6331 50.0099 86.5515 50.8261 85.9802C51.6422 85.3273 50.418 85.0009 50.9077 84.4296C51.3973 83.9399 51.5606 83.3687 51.6422 82.5525Z" fill="white"/>
</svg>
