<svg width="100" height="100" viewBox="0 0 100 100" fill="none" xmlns="http://www.w3.org/2000/svg">
<path d="M10.4457 34.1555C12.7751 33.379 15.2239 32.8016 14.5271 32.4034C11.4113 30.6514 6.56333 26.7591 5.38867 27.7347C5.38867 27.7347 9.08187 30.6514 9.08187 31.627C9.08187 32.6025 6.16514 35.5491 6.16514 35.5491C6.16514 35.5491 8.11627 34.9618 10.4457 34.1555Z" fill="white"/>
<path d="M26.98 46.0513C25.228 44.2993 19.2054 41.7708 17.2543 37.8785C17.2543 37.8785 22.3113 42.7364 26.5918 43.7119C28.2987 45.5105 30.1174 47.1995 32.037 48.7689C35.342 51.4965 44.2813 61.0332 44.2813 61.0332C44.2813 61.0332 48.8008 55.1897 47.9845 48.1916L21.923 37.2912L47.9845 46.0414C48.8376 45.7321 49.5466 45.1189 49.9754 44.3192L50.9709 44.4884L50.4035 43.264C50.471 43.0547 50.5274 42.8421 50.5727 42.6269L51.8967 42.2386L50.722 41.2432C50.722 41.0773 50.722 40.9047 50.722 40.7255L51.8171 40.0785L50.6424 39.5409C50.6424 39.1427 50.5329 38.7147 50.4433 38.2667L51.1899 37.8188L50.2442 37.3807C50.1712 37.0821 50.0882 36.7735 49.9953 36.455L50.9908 35.4595L49.5971 35.1807C49.4976 34.8821 49.3881 34.5835 49.2686 34.2649L50.3935 33.1699L48.6813 32.8215C48.5718 32.5627 48.4524 32.2939 48.3329 32.0251L49.2985 31.169L47.8053 30.8903C47.6792 30.6314 47.5465 30.3759 47.4071 30.1238L48.0243 28.8993L46.7501 29.0686C46.541 28.76 46.322 28.4514 46.0931 28.1428L46.7103 26.9283L45.2469 27.1274C45.0014 26.8486 44.7492 26.5799 44.4904 26.321L44.9782 25.3256L43.684 25.4948C43.3456 25.1962 42.9972 24.8975 42.6886 24.6188L42.8279 23.5337L41.8325 24.0116C41.5006 23.7726 41.1688 23.537 40.837 23.3048L41.056 22.0405L39.7619 22.6378L38.7664 22.0803L38.9356 21.0849L37.7908 21.6125C37.4225 21.4333 37.0542 21.274 36.6759 21.1147V20.1193L35.8198 20.7464C35.4216 20.5871 35.0234 20.4478 34.6153 20.3084V19.0242L33.4108 19.9202L32.4153 19.6414V18.4867L31.2207 19.3627L30.2253 19.1935L29.7474 17.8794L28.9212 19.0342L27.9257 18.9546L27.3981 17.4912L26.4026 18.9346H25.5665L25.0986 17.6505L23.6153 19.3627C23.2709 19.5793 22.973 19.8624 22.739 20.1953C22.505 20.5282 22.3397 20.9044 22.2526 21.3019C22.1655 21.6994 22.1584 22.1103 22.2317 22.5105C22.305 22.9108 22.4573 23.2925 22.6796 23.6333C23.2687 24.4882 23.7314 25.4236 24.0533 26.4106C24.0533 26.4106 20.161 23.8821 18.9963 23.1057C17.8316 22.3292 15.8805 21.941 13.1629 23.3048C10.4452 24.6686 9.46967 24.6686 8.10587 24.6686C7.49284 24.7119 6.89684 24.8895 6.3601 25.1889C5.82337 25.4882 5.35903 25.9019 5 26.4007C5.98622 26.383 6.96949 26.5138 7.91673 26.7889C8.6932 27.1772 14.885 31.2586 16.4778 31.8459C18.0705 32.4332 16.0896 33.598 15.3131 33.9862C14.5366 34.3744 10.2461 36.1464 9.28053 36.1464C7.95552 36.3591 6.65269 36.6923 5.38823 37.1418C6.22631 37.7266 7.14517 38.186 8.11583 38.5056C9.47962 38.8939 13.1728 42.0097 13.1728 42.0097C14.0194 43.3717 14.6223 44.8707 14.9547 46.4395C15.343 48.7689 14.5665 53.6368 14.5665 55.3988V57.1508C14.5665 57.1508 15.9303 55.3988 18.847 57.1508C21.7637 58.9028 21.923 61.6105 26.2036 62.0286C26.2036 62.0286 19.9819 46.6685 15.9004 41.0242C15.9004 41.0242 25.2379 52.502 28.1547 64.5571C29.8454 63.983 31.6262 63.7199 33.4108 63.7807C35.9393 63.9798 40.2198 63.7807 42.7483 61.7897L26.98 46.0513ZM16.1792 28.541C15.8893 28.5409 15.606 28.4549 15.3651 28.2936C15.1243 28.1324 14.9367 27.9033 14.8263 27.6353C14.7158 27.3673 14.6874 27.0726 14.7447 26.7884C14.802 26.5043 14.9423 26.2436 15.148 26.0393C15.3536 25.8351 15.6153 25.6965 15.8998 25.6412C16.1843 25.5858 16.4789 25.6162 16.7461 25.7285C17.0133 25.8408 17.2411 26.0299 17.4007 26.2719C17.5603 26.5138 17.6445 26.7977 17.6425 27.0876C17.6399 27.4739 17.4845 27.8436 17.2104 28.1159C16.9362 28.3882 16.5655 28.541 16.1792 28.541Z" fill="white"/>
<path d="M28.3342 67.007C28.2338 68.5739 28.3646 70.147 28.7224 71.6758L29.3097 73.816C27.9432 76.0258 26.3807 78.1081 24.641 80.0377L22.5007 82.178C21.1582 82.4889 19.8432 82.9084 18.5686 83.4323C17.6775 83.317 16.7772 83.2904 15.8808 83.3527C14.8853 83.502 12.9641 86.4187 13.8401 86.5581C14.5369 86.6775 15.3233 85.2341 16.4184 84.8558C15.4229 86.0106 15.2138 87.4341 15.6917 87.4341C16.1695 87.4341 17.4437 85.6821 18.6084 85.4432C19.7731 85.2042 22.1125 85.0549 22.1125 85.0549C22.1125 85.0549 18.9966 86.4187 18.4193 87.5834C17.8419 88.7481 21.7242 86.9165 22.9188 86.9165C24.1134 86.9165 27.0002 84.9255 27.0002 83.8006C27.0002 82.6758 34.7749 77.1907 34.5857 72.7111C34.5405 70.4087 34.206 68.1211 33.5903 65.902C31.7613 65.5804 29.8788 65.9762 28.3342 67.007Z" fill="white"/>
<path d="M16.4788 71.3258C17.6435 71.714 19.9829 69.5737 19.9829 68.5982C19.9829 67.6226 23.2878 63.1529 23.2878 63.1529C21.2969 62.5656 19.3955 60.0371 19.3955 60.0371L16.867 65.6814C16.867 65.6814 16.867 66.2688 12.7856 66.6769C8.70415 67.085 8.50506 70.7583 9.66976 70.7583C10.8345 70.7583 10.4462 69.2054 13.363 68.7674C16.2797 68.3294 17.2553 69.3547 14.5277 69.5439C11.8001 69.733 11.6109 71.5348 12.9747 71.2959C14.1269 71.0128 15.3316 71.0231 16.4788 71.3258Z" fill="white"/>
<path d="M78.026 33.4986C65.4831 24.7484 82.645 9 82.645 9C82.645 9 68.1111 17.1629 71.3165 28.5411C74.5219 39.9194 88.8169 40.218 88.8169 53.0695C88.8169 65.9211 75.1093 70.2614 73.0685 70.8487C69.8243 71.6113 66.4145 71.1912 63.4523 69.6641C60.2469 65.5528 53.8958 57.7184 49.1474 53.637C49.1474 53.637 49.9238 65.1148 35.5293 66.0804L36.3058 70.55C36.3058 70.55 43.1148 76.3835 47.9727 77.7473L50.3021 78.1355C50.3021 78.1355 49.7148 69.7736 51.6659 68.0215C53.179 66.6577 58.5844 69.5347 60.9039 70.8785C60.9039 70.9781 60.9039 71.0677 60.9039 71.1672C58.4749 70.4007 52.7211 68.7383 52.2532 69.9627C51.6659 71.5156 51.2578 77.9265 52.4523 81.2414C52.4523 81.2414 51.0885 82.9934 49.9238 84.3572C49.8342 84.4598 49.7377 84.5563 49.6351 84.6459C48.113 84.7877 46.5828 84.8209 45.056 84.7455C44.0605 84.5464 42.5275 85.9102 41.751 87.0749C43.3717 86.144 45.2808 85.8495 47.1066 86.2486C45.8221 86.8318 44.6122 87.567 43.503 88.4387C42.9944 89.2574 42.7254 90.2024 42.7266 91.1663C42.7266 91.1663 44.4786 88.8369 45.6433 88.6378C46.57 88.4669 47.482 88.2239 48.3709 87.9111L52.8406 86.5473C52.8406 86.5473 51.2876 88.1002 51.2876 89.464V90.8278C51.2876 90.8278 52.8406 88.1002 54.0152 87.712C55.1899 87.3238 57.7084 85.96 57.5193 83.0432C57.3301 80.1265 57.5193 77.0107 56.7428 74.084C56.7428 74.084 58.2957 75.0794 58.8831 79.9174C60.3205 80.1918 61.8071 80.0324 63.1536 79.4595C68.6885 78.7229 88.4187 75.2586 92.9183 63.0044C98.1544 48.6696 90.6088 42.2587 78.026 33.4986Z" fill="white"/>
</svg>
