<svg width="100" height="100" viewBox="0 0 100 100" fill="none" xmlns="http://www.w3.org/2000/svg">
<g clip-path="url(#clip0_6270_21057)">
<path d="M69.8359 26.4768C69.4644 26.4363 69.1753 26.35 68.9307 26.2022C68.5344 25.9643 68.329 25.6401 68.2309 25.4871C67.8175 24.8504 67.2759 24.3065 66.8142 23.7051C66.3537 23.1063 65.3883 22.4552 63.1501 22.3127C63.4327 21.7061 63.7152 21.0995 63.9978 20.4928C64.6139 19.1697 64.0344 17.5996 62.7054 16.9955C59.282 15.4371 53.2974 12.5229 51.3496 10.3736C51.0932 10.0899 50.5569 9.48584 50.2508 8.5419C49.6464 6.67755 50.3907 4.87596 50.8368 4C50.5883 4.09021 48.1094 5.04461 47.3925 7.66202C46.83 9.71464 47.5783 11.9621 49.2984 13.3754C51.101 14.8566 52.5426 16.0241 53.4766 16.3784C52.6943 16.1993 51.8336 15.9588 50.9205 15.6319C49.649 15.1769 48.5541 14.654 47.6398 14.148C47.1322 13.8186 46.0216 12.9988 45.2956 11.4927C44.4427 9.72117 44.6481 8.08954 44.7488 7.51036C44.4257 8.03594 42.3 11.6169 43.8109 14.6945C44.4963 16.0895 45.6658 16.8439 46.936 17.661C49.3429 19.2116 51.6897 19.7528 53.1836 19.9673C51.9827 20.03 49.1389 20.0117 46.2335 18.2859C44.4349 17.2178 43.2902 15.8973 42.6401 15.007C42.5721 15.9196 42.5315 18.2075 44.0463 20.0823C44.2543 20.3386 44.8835 21.0341 46.5148 21.9454C47.7483 22.6357 49.9499 23.6293 53.1103 23.8502C52.6773 24.3196 52.0651 25.0975 51.6439 26.1944C51.3731 26.8991 51.118 27.9019 51.2044 29.6368C51.347 32.5104 52.311 35.0233 53.0724 36.6287C52.0233 38.0185 50.6524 39.6135 48.8969 41.2203C46.9765 42.9801 45.1046 44.2901 43.5152 45.251C40.0265 50.7421 36.539 56.2332 33.0503 61.7243C27.1624 65.1523 21.2746 68.5816 15.3867 72.0096C14.3114 72.6894 13.8 73.7719 14.0721 74.5851C14.2971 75.2584 15.0087 75.5918 15.1486 75.6585C15.6457 75.8912 16.1716 75.8494 17.2076 75.8232C17.515 75.8154 17.7727 75.7722 18.4242 75.7173C20.8494 75.5134 22.9359 74.8048 24.3068 74.2361C22.5434 76.2834 21.0234 77.1607 19.9259 77.5778C19.0259 78.0288 18.1259 78.4812 17.2259 78.9322C17.0663 79.1336 16.4476 79.9572 16.6634 80.8057C16.9395 81.8935 18.5197 82.7538 20.4112 82.304C21.217 82.1144 22.0948 81.8621 23.0235 81.5222C24.6404 80.9312 25.9995 80.2266 27.0957 79.5572C26.2624 80.2854 25.4305 81.0136 24.5972 81.7418C24.4808 81.836 24.2113 82.0818 24.0988 82.491C23.9654 82.976 24.0125 83.584 24.2846 83.6716C25.021 83.9082 25.9354 84.1082 26.9911 84.137C29.6806 84.2128 31.6663 83.1407 32.4852 82.6335C35.3905 80.6188 38.2958 78.6041 41.2012 76.5894C41.2744 77.0038 41.6185 78.7217 42.6807 79.08C43.9103 79.4944 46.0085 78.0537 47.1191 75.0336C48.4299 72.2763 49.7118 69.4627 50.9598 66.5917C51.0932 66.2845 51.2253 65.9772 51.3574 65.6713C51.4555 65.9641 51.449 66.223 51.3901 66.4701C50.8656 68.6522 50.3162 70.829 49.8099 73.0149C49.6974 73.5039 49.721 74.0256 49.6856 74.5328C49.7733 74.5864 49.789 74.5956 49.8766 74.6505C50.0689 74.5315 50.3057 74.4492 50.447 74.2857C50.846 73.8229 51.2475 73.3523 51.5746 72.8384C55.4453 66.7773 58.1531 60.226 59.7974 53.2301C59.8785 52.8849 59.9727 52.5411 60.0617 52.1972C60.012 53.3242 59.9165 54.4878 59.7647 55.6867C58.7902 63.3729 55.8691 69.6196 52.9703 74.223C52.8487 74.4753 51.8519 76.4573 49.7759 76.7972C49.0355 76.9188 48.3985 76.792 47.9733 76.6587C47.8464 77.2391 47.5613 78.1844 46.864 79.1532C46.3408 79.8814 45.7652 80.3704 45.3388 80.6776C45.9745 82.236 46.401 83.5094 46.677 84.4024C46.8274 84.8874 47.1806 87.6826 48.371 88.739C48.4142 88.7769 48.4573 88.8528 48.4652 88.909C48.5737 89.6843 48.6771 90.4596 48.787 91.2754C46.673 91.3224 44.6428 91.1943 42.627 91.6297C43.2366 91.8689 43.8554 92.0154 44.4806 92.1239C46.2244 92.4272 48.0374 92.4377 49.6647 93.2443C50.5333 93.6745 51.343 93.6209 52.1802 93.1894C53.1574 92.6848 54.2039 92.5945 55.2844 92.7331C55.7933 92.7985 56.2302 92.9214 56.4513 93.4587C56.535 93.6614 56.722 93.8209 56.862 94C56.9065 93.9752 56.951 93.9503 56.9954 93.9255C56.8738 93.43 56.7521 92.9332 56.6187 92.3854C56.9496 92.503 57.2152 92.5632 57.4467 92.6861C58.4514 93.2221 59.4128 93.1776 60.4188 92.6403C61.3109 92.1631 62.3051 92.1579 63.2953 92.2625C63.8251 92.3187 64.2817 92.473 64.5001 93.0338C64.5668 93.2051 64.7304 93.3385 64.8507 93.4888C64.9069 93.464 64.9645 93.4404 65.0208 93.4156C64.8677 92.8652 64.7055 92.3174 64.5642 91.763C64.4661 91.376 64.2568 91.2061 63.8382 91.1839C62.3823 91.1028 60.9289 90.9904 59.4756 90.8753C58.6149 90.8073 57.9072 90.1759 57.7319 89.33C57.5959 88.6737 57.6089 88.1507 58.1767 87.663C58.5351 87.3545 58.7601 86.8812 59.0125 86.4628C60.7118 83.6467 61.5987 80.5769 61.8786 77.3137C61.9009 77.0509 62.0081 76.7528 62.1743 76.5528C66.0529 71.8644 68.0477 66.4283 68.6403 60.426C68.7881 58.9225 68.9386 57.419 69.1191 55.9181C69.1505 55.6632 69.3415 55.4278 69.4592 55.1833C69.6489 55.4017 69.8909 55.5926 70.0191 55.8423C70.6587 57.0869 70.7072 58.3669 70.4377 59.7514C69.3205 65.4961 67.0444 70.727 63.6812 75.5003C63.5138 75.737 63.3673 75.988 63.2103 76.2311C63.5975 76.1279 63.8853 75.9461 64.143 75.7291C65.9901 74.1733 67.4813 72.3142 68.7463 70.2694C70.9897 66.6414 72.0441 62.6473 72.3044 58.4296C72.4823 55.5429 72.1919 52.7006 70.9021 50.0636C70.3396 48.9131 69.5913 47.8541 68.9346 46.7493C68.2413 45.5831 67.9444 44.3463 68.2544 42.9905C68.3774 42.4545 68.4912 41.9054 68.5095 41.3589C68.5474 40.1836 68.5213 39.0069 68.5213 37.7897C68.8051 37.7962 69.815 37.7858 70.7582 37.0523C71.6987 36.3228 71.9616 35.3527 72.0257 35.0756C71.1074 34.8664 70.3186 34.7814 69.7025 34.7474C68.4153 34.6781 68.0059 34.7631 67.1595 34.5617C65.2026 34.095 64.5943 32.2437 65.7899 30.5415C65.8396 30.7977 65.8854 31.037 65.9325 31.2749C66.2818 33.0517 67.2916 33.878 69.0955 33.8636C69.607 33.8597 70.1172 33.8531 70.6287 33.8427C72.2089 33.8126 73.5366 34.4062 74.6564 35.4913C75.0266 35.8508 75.3575 36.2496 75.7513 36.6784C76.0534 35.2965 76.0613 33.9826 75.8768 32.6543C75.402 29.2236 73.1376 26.8416 69.8359 26.4768ZM56.7194 90.6308C55.1955 90.6557 53.6715 90.6531 52.1488 90.7132C51.6988 90.7315 51.2567 90.925 50.8106 91.0348C50.4666 91.1198 50.1605 91.1381 50.0846 90.6687C49.9695 89.9601 49.8295 89.2568 49.7249 88.5468C49.7066 88.4266 49.7694 88.2422 49.8609 88.1651C51.5314 86.774 52.3307 84.8351 53.1679 82.9224C53.3589 82.4844 53.5198 82.0334 53.682 81.5836C54.0495 80.5639 54.0456 80.5613 55.1641 80.5181C55.3786 80.5103 55.5944 80.5168 55.8953 80.5168C55.1981 82.6243 55.2909 84.6338 56.0601 86.6014C56.2524 87.0917 56.6213 87.5127 56.9026 87.969C57.0007 88.1285 57.1328 88.2893 57.1616 88.4645C57.2741 89.1482 57.3525 89.8372 57.452 90.5955C57.1825 90.6099 56.951 90.6282 56.7194 90.6308ZM61.8839 30.7219C60.5117 30.7219 59.3984 29.6093 59.3984 28.2379C59.3984 26.8664 60.5117 25.7538 61.8839 25.7538C63.2561 25.7538 64.3693 26.8664 64.3693 28.2379C64.3693 29.6106 63.2561 30.7219 61.8839 30.7219Z" fill="white"/>
<path d="M62.113 28.4993C61.6242 28.4993 61.2273 28.1022 61.2273 27.6132C61.2273 27.3755 61.3218 27.1594 61.4743 27C60.6575 27.0135 60 27.6781 60 28.4993C60 29.3273 60.671 30 61.5 30C62.3276 30 63 29.3287 63 28.4993C63 28.3224 62.9676 28.1535 62.9122 27.9968C62.7678 28.2927 62.4653 28.4993 62.113 28.4993Z" fill="white"/>
</g>
<defs>
<clipPath id="clip0_6270_21057">
<rect width="100" height="100" fill="white"/>
</clipPath>
</defs>
</svg>
