<svg width="100" height="100" viewBox="0 0 100 100" fill="none" xmlns="http://www.w3.org/2000/svg">
<g clip-path="url(#clip0_6270_21067)">
<path d="M32.4576 30.5084L34.794 29.0131C34.794 29.0131 28.4391 26.4899 26.0093 24.5273C26.0093 24.5273 19.561 27.7048 16.5705 29.3869L15.6359 29.9477C15.3556 30.0411 15.449 30.4149 15.6359 30.5084C17.2246 31.0691 21.4301 32.3775 24.3271 32.4709C24.3271 32.4709 28.626 32.1906 32.4576 30.5084Z" fill="white"/>
<path d="M42.0826 56.8616C41.148 57.9831 39.3724 58.3569 39.3724 58.3569C36.1015 57.5158 35.3539 51.3479 34.6997 47.3294C34.0455 43.3108 38.251 38.5447 41.0546 36.7691C43.7647 34.9935 53.2036 36.4887 54.0447 36.7691C54.8857 37.0494 59.8388 36.4887 59.8388 36.4887C59.8388 36.4887 58.9043 34.0589 58.2501 32.7506C57.5959 31.4422 57.7828 25.9284 56.6614 23.9659C55.5399 22.0034 54.4185 21.0688 54.4185 21.0688L56.381 20.7885C56.381 20.7885 54.6054 18.1718 51.1476 16.5831C47.6898 14.9943 45.9142 15.2747 45.9142 15.2747L47.2225 13.4991C44.0451 13.1253 40.9611 14.5271 40.9611 14.5271L42.3629 12.2842C42.3629 12.2842 38.6248 12.5645 33.7652 15.1812C28.9056 17.798 26.9431 23.3117 26.9431 23.3117C28.7187 24.9004 37.8771 28.8255 37.8771 28.8255C37.8771 28.8255 37.8771 28.8255 34.6063 30.9749C31.3354 33.1244 29.0925 33.1244 29.0925 33.1244C29.0925 33.1244 29.0925 33.1244 26.4758 38.3578C23.8591 43.5912 23.7656 52.002 23.7656 52.002C24.8871 63.4969 31.4288 70.7863 33.9521 73.5899C36.5688 76.3 44.1386 78.4495 44.1386 78.4495L42.8302 76.3C47.2225 79.5709 52.0821 78.7298 52.0821 78.7298L48.5309 76.3C48.5309 76.3 49.8392 76.5804 52.9232 77.6084C56.0072 78.5429 57.5024 77.4215 57.5024 77.4215L55.5399 76.4869C48.5309 71.4404 42.0826 56.8616 42.0826 56.8616ZM37.0361 24.5266C37.0361 24.5266 37.5033 23.6855 38.6248 23.4052C39.7462 23.1248 40.6808 23.4986 41.8957 24.9004C41.8957 24.9004 41.148 26.2088 39.1855 26.3957C37.3164 26.4892 37.0361 24.5266 37.0361 24.5266Z" fill="white"/>
<path d="M88.0632 95.3647C86.4744 91.8134 73.5778 73.3096 73.5778 73.3096C73.5778 73.3096 73.1106 75.7394 70.8677 75.8328C70.8677 75.8328 70.8677 81.0662 70.4004 82.655L70.8677 83.3091L79.6523 97.4206C79.6523 97.4206 81.1476 100.785 82.5494 98.3552C82.5494 98.3552 80.1196 93.4956 76.4749 87.4211C76.4749 87.4211 81.3345 93.4956 86.1941 100.505L87.6893 102C87.6893 102 86.4744 97.8879 85.5399 95.4581C84.6054 93.0283 79.5589 84.8978 79.5589 84.8978C79.5589 84.8978 86.5679 92.561 88.8108 101.252C88.7173 101.252 89.6519 98.9159 88.0632 95.3647Z" fill="white"/>
<path d="M72.8301 71.1608C72.8301 71.1608 73.1104 72.2823 70.8675 61.4416C70.7741 60.9744 70.6806 60.5071 70.5872 60.0398C70.2133 60.3202 69.6526 60.4136 68.9985 60.5071C68.1574 60.5071 66.4752 59.4791 66.4752 59.4791C66.1948 60.7875 64.793 62.2827 63.3912 62.75C55.9149 65.1798 46.7564 56.3951 46.7564 56.3951C50.9619 59.9464 56.9429 60.8809 60.7745 61.2547C64.6061 61.6286 65.821 56.582 65.821 56.582C67.877 58.7315 69.1854 58.638 70.0264 57.8904C67.5032 49.1057 63.2043 43.7789 62.6436 42.7509C61.9894 41.6294 60.1203 37.8913 60.1203 37.8913L54.3262 38.7324C54.3262 38.7324 46.9434 36.396 43.1117 37.5175C39.3736 38.6389 36.7569 43.3116 36.7569 43.3116C35.0747 46.3956 37.6914 54.6195 38.4391 55.9279C39.2801 57.2362 42.6445 54.1522 42.6445 54.1522C45.1677 61.0678 50.1208 68.5441 53.5786 71.7216C54.2327 72.4692 61.2418 79.9455 63.1109 82.6557C65.0734 85.5527 66.3817 86.5807 67.1294 87.048C67.9705 87.5153 69.0919 79.7586 68.905 78.4502C68.7181 77.1419 68.7181 77.1419 68.7181 77.1419C68.7181 77.1419 64.0454 77.8895 60.7745 75.3663C62.6436 75.8335 64.6061 76.0204 66.4752 75.5532C70.2134 74.6186 69.0919 72.0019 69.0919 72.0019C72.2693 75.8335 72.8301 71.1608 72.8301 71.1608Z" fill="white"/>
<path d="M54.5132 82.9357C51.1489 81.8143 49.8405 83.2161 48.8126 82.2815C47.878 81.347 47.878 80.1321 47.878 80.1321L45.2613 79.291L43.6726 79.5714V82.2815C43.6726 82.2815 42.5511 83.8703 41.2428 83.8703C39.9344 83.8703 37.8785 83.6833 37.8785 83.6833C37.8785 83.6833 34.5141 83.2161 34.3272 84.8048C34.1403 86.3935 34.3272 87.0477 34.3272 87.0477C34.3272 87.0477 35.4487 85.7393 36.4766 85.7393C37.5046 85.7393 37.5981 87.2346 41.3362 87.0477C45.0744 86.8608 45.7286 86.5804 46.3828 84.8982C46.3828 84.8982 46.85 86.6739 50.7751 86.3935C55.2609 86.0197 54.1394 84.1506 55.1674 84.8982C56.1019 85.7393 56.4758 85.8328 56.4758 85.8328C56.4758 85.8328 57.971 84.0572 54.5132 82.9357Z" fill="white"/>
</g>
<defs>
<clipPath id="clip0_6270_21067">
<rect width="100" height="100" fill="white"/>
</clipPath>
</defs>
</svg>
