<svg width="100" height="100" viewBox="0 0 100 100" fill="none" xmlns="http://www.w3.org/2000/svg">
<g clip-path="url(#clip0_6270_21050)">
<path d="M23.3576 90.9891C27.2363 90.3855 30.3433 88.6142 32.2895 85.1866C33.5944 82.8906 34.7261 80.478 35.7189 78.0294C36.3859 76.385 36.6739 74.5881 37.1369 72.8391C37.1558 72.8339 37.2089 72.8065 37.2638 72.8065C39.6832 72.7516 42.1009 72.6847 44.5204 72.671C44.7673 72.6693 45.1257 72.9368 45.2457 73.1734C46.8386 76.2856 47.4799 79.4749 46.2059 82.9077C45.4412 84.9671 45.2731 87.131 45.6761 89.3224C45.7978 89.9843 46.0499 90.3392 46.7941 90.2741C47.3873 90.2226 47.9926 90.2912 48.5911 90.3084C55.4121 90.5021 62.2332 90.713 69.0542 90.8742C70.1019 90.8999 71.1667 90.7747 72.2007 90.5896C73.1832 90.4129 73.3992 89.6962 72.6173 89.0978C71.7274 88.4153 70.7346 87.7946 69.6904 87.4002C68.0442 86.7778 66.297 87.0041 64.6046 87.2905C60.4139 87.9969 56.3672 87.5203 52.4011 86.0456C51.777 85.8141 51.5952 85.5089 51.5918 84.8796C51.578 82.4808 51.4975 80.0836 51.4683 77.6848C51.446 75.8364 51.4632 73.9862 51.4632 72.0863C52.2605 71.9817 53.0561 71.9183 53.8363 71.7691C61.7136 70.2653 67.0652 65.9597 68.9222 58.0464C69.3508 56.222 70.2236 54.7182 71.796 53.3396C73.1266 54.4284 74.5669 55.4572 75.8272 56.6747C77.355 58.1493 78.1884 60.0132 78.245 62.1823C78.269 63.1236 78.3067 64.0667 78.3941 65.0029C78.5725 66.9028 80.1414 68.422 81.9933 68.5335C82.9912 68.5935 83.3839 68.2077 83.1113 67.2732C82.9072 66.5736 82.662 65.7985 82.1905 65.2807C81.0845 64.065 81.009 62.707 81.1908 61.2049C81.2851 60.4264 81.2851 59.6016 81.1411 58.8335C80.6609 56.2443 79.4538 53.9346 78.1678 51.6763C77.211 49.9942 76.1599 48.3653 75.1276 46.6763C77.7288 43.3944 79.2292 39.6735 79.5344 35.4691C79.6184 34.3099 79.8053 33.1388 80.1191 32.0208C80.5341 30.5513 81.875 29.6443 83.1833 29.7849C84.1486 29.8877 85.1123 30.0095 86.0691 30.1638C87.2797 30.3593 89.7094 29.2859 90.2924 28.2245C90.481 27.8798 90.5684 27.4786 90.6885 27.0997C90.7571 26.8853 90.7776 26.6538 90.8496 26.4412C91.1789 25.4655 90.9988 25.0815 89.9957 24.8157C88.9206 24.531 87.8284 24.3064 86.7498 24.0338C85.1637 23.6308 84.8156 23.2639 84.6253 21.5972C84.5344 20.805 84.1298 20.4484 83.4027 20.2838C83.0924 20.2134 82.7923 20.0334 82.5214 19.8516C81.7978 19.3647 81.1291 18.7834 80.3677 18.3702C79.8173 18.0701 79.5635 17.7374 79.7487 17.1562C79.8945 16.6983 80.066 16.2336 80.3163 15.8256C80.9439 14.8036 81.6332 13.8228 82.271 12.8077C82.482 12.4733 82.6071 12.0841 82.7735 11.7206C82.6723 11.6537 82.5711 11.5868 82.4699 11.52C79.7504 12.5265 78.1198 14.5738 77.2333 17.4425C77.0018 17.1167 76.8475 16.8835 76.676 16.6658C75.0916 14.6476 73.5347 12.6054 71.8972 10.63C71.4273 10.0625 70.7655 9.35602 69.9304 9.73668C69.1262 10.1036 69.2102 11.0364 69.2137 11.7943C69.224 15.1894 70.4294 18.0872 72.8985 20.4072C72.8934 20.4707 72.9003 20.5032 72.8882 20.5255C71.904 22.2694 71.9503 23.329 71.724 24.6665C71.6948 24.8414 71.7137 25.0746 71.8646 26.911C71.9537 27.9913 72.0223 28.732 72.0275 28.8092C72.2007 30.8651 68.4215 37.621 61.417 39.3117C58.1128 40.109 57.372 39.0013 53.4299 39.1557C45.8544 39.4523 40.2474 43.9997 39.4157 44.6907C29.9952 52.5371 29.7792 67.0657 29.7809 68.4409C29.7809 68.4632 29.7877 72.1035 29.0487 76.8926C28.3011 81.7332 27.5141 83.1804 26.8951 84.0189C25.5113 85.893 23.4245 87.2425 20.513 88.2507C15.7136 89.914 10.7152 90.2312 5.71346 89.9706C0.397918 89.6945 -4.88333 89.9225 -10.1543 90.4901C-8.3453 90.7799 -5.78355 91.1623 -2.70053 91.5155C-2.69024 91.5121 11.077 92.9027 23.3576 90.9891Z" fill="white"/>
<path d="M53.4094 85.0096C56.5781 86.606 59.9132 86.8015 63.3443 86.2493C66.8011 85.6938 70.095 86.095 73.2381 87.7223C73.9377 88.0841 74.7933 88.1904 75.5923 88.2881C75.9644 88.3344 76.3742 88.0806 76.7669 87.9623C76.5611 87.6091 76.4308 87.1719 76.1393 86.9181C74.4263 85.4349 72.463 84.4986 70.1516 84.5569C68.929 84.5878 67.7013 84.713 66.4942 84.9033C62.9602 85.464 59.5085 85.2737 56.1306 84.0083C55.5253 83.7819 55.3007 83.4956 55.311 82.844C55.3504 80.56 55.3264 78.2743 55.3264 75.9903C55.3264 74.8861 55.3264 73.7818 55.3264 72.585C54.5856 72.7907 53.9924 72.9005 53.4488 73.1302C53.1985 73.2348 52.8847 73.5692 52.8778 73.8075C52.8195 75.74 52.8247 77.6742 52.8161 79.6083C52.8092 81.0298 52.9035 82.4599 52.7698 83.8676C52.7063 84.5347 52.8915 84.7473 53.4094 85.0096Z" fill="white"/>
<path d="M75.2053 60.4439C75.135 59.7512 75.1196 58.8853 74.9464 58.0537C74.6292 56.5362 73.9261 55.2673 72.3486 54.6997C71.8839 54.5334 71.5427 54.5831 71.3078 55.089C71.0798 55.5776 70.7368 56.0149 70.5173 56.507C70.4265 56.7111 70.4213 57.0917 70.5516 57.2358C72.232 59.1082 72.9728 61.3184 73.1185 63.7996C73.2145 65.4217 74.0805 66.646 75.4728 67.4656C76.3353 67.9732 76.9217 67.7057 77.0949 66.7334C77.2869 65.6583 77.0795 64.6724 76.1724 63.9625C75.4282 63.3812 75.1298 62.6422 75.2036 61.718C75.2293 61.3493 75.2053 60.9772 75.2053 60.4439Z" fill="white"/>
</g>
<defs>
<clipPath id="clip0_6270_21050">
<rect width="100" height="100" fill="white"/>
</clipPath>
</defs>
</svg>
