<svg width="100" height="100" viewBox="0 0 100 100" fill="none" xmlns="http://www.w3.org/2000/svg">
<g clip-path="url(#clip0_6270_21086)">
<path d="M74.0664 53.5798L83.7384 42.9177L84.3546 42.2391L84.4269 41.8889L85.273 37.7545C87.3833 36.3346 89.495 34.9146 91.6053 33.4947C91.925 34.0332 92.5064 34.3951 93.1732 34.3951C94.1828 34.3951 95 33.5691 95 32.5519C95 31.5333 94.1813 30.7073 93.1732 30.7073C92.1665 30.7073 91.3508 31.5289 91.3464 32.5432C90.7939 32.4541 90.1879 32.2352 89.6339 31.7697C88.821 31.0882 88.3553 30.0739 88.3134 29.0028C88.5332 29.0976 88.7748 29.1502 89.0279 29.1502C90.0375 29.1502 90.8561 28.3242 90.8561 27.3055C90.8561 26.2869 90.0375 25.4624 89.0279 25.4624C88.0183 25.4624 87.1996 26.2884 87.1996 27.3055C87.1996 27.6923 87.3182 28.0498 87.5193 28.3461C86.8236 28.7824 85.8039 29.2027 84.5455 29.0903C83.5157 28.9984 82.7144 28.5839 82.1517 28.1724C82.6001 27.8367 82.8908 27.2997 82.8908 26.6941C82.8908 25.6754 82.0722 24.8509 81.0626 24.8509C80.053 24.8509 79.2344 25.6769 79.2344 26.6941C79.2344 27.7127 80.053 28.5387 81.0626 28.5387C81.1812 28.5387 81.2969 28.527 81.4083 28.5051C81.7627 30.827 82.117 33.1488 82.4699 35.4706L80.6417 39.7553L73.9189 43.9174C72.824 37.486 70.0787 32.9182 69.3324 31.7201C69.9761 30.9364 72.6533 27.504 72.0502 23.0384C71.5787 19.5534 69.3816 17.468 67.0688 15.2717C64.7604 13.0797 61.8358 10.3026 59.3711 11.1592C57.258 11.8933 56.6114 14.9039 55.7479 18.9259C54.8714 23.0106 54.29 25.7207 55.7479 28.5212C57.5791 32.0382 61.3397 33.2232 62.5402 33.5472C62.7383 34.3396 63.9707 39.5802 63.3603 45.9693L56.2527 45.4059L52.3432 40.6324C52.4169 38.1179 52.4907 35.6034 52.563 33.0904C53.1835 33.14 53.8127 32.8701 54.1989 32.3213C54.7832 31.491 54.5894 30.3395 53.7664 29.75C52.9434 29.1604 51.8022 29.3559 51.2179 30.1863C50.635 31.0138 50.8259 32.1608 51.6431 32.7519C51.2511 33.1546 50.7232 33.5253 50.0275 33.7121C49.0063 33.9865 47.9172 33.7822 47.0277 33.197C47.2316 33.0715 47.4139 32.9022 47.5599 32.6935C48.1443 31.8631 47.9505 30.7117 47.1275 30.1221C46.3045 29.5325 45.1633 29.7281 44.5789 30.5584C43.9946 31.3888 44.1884 32.5402 45.0114 33.1298C45.3238 33.3531 45.6811 33.464 46.0369 33.4699C45.9863 34.2944 45.736 35.3772 44.9174 36.3477C44.4329 36.9212 43.8803 37.3007 43.364 37.5517C43.3047 37.0993 43.0805 36.6673 42.7001 36.3579C41.9133 35.7187 40.7634 35.8442 40.1299 36.6381C39.4963 37.432 39.6207 38.5922 40.4076 39.2314C41.1944 39.8706 42.3443 39.7451 42.9778 38.9512C43.0125 38.9074 43.0458 38.8607 43.0761 38.814C45.1156 39.8458 47.155 40.8776 49.1944 41.9093L53.3802 48.745L53.5957 49.0967L54.5677 49.5797L61.8416 53.1931C60.7206 56.4781 58.9271 59.7514 56.1312 62.6424C55.8781 62.9051 55.1679 63.6246 54.0803 64.5162L48.5522 57.1173L47.868 56.2023L47.2605 56.052L35.62 53.1581C33.9494 51.185 32.2774 49.212 30.6068 47.2389C31.1275 46.8347 31.4154 46.159 31.2939 45.4599C31.1203 44.4574 30.1744 43.7861 29.1793 43.9612C28.1856 44.1363 27.5202 45.0907 27.6938 46.0948C27.8674 47.0959 28.809 47.7657 29.7998 47.595C29.807 48.1598 29.6985 48.799 29.3398 49.4294C28.822 50.3415 27.931 50.9719 26.9113 51.2054C26.9084 51.1179 26.9026 51.0289 26.8867 50.9413C26.7132 49.9387 25.7672 49.2674 24.7721 49.4425C23.777 49.6177 23.1131 50.5721 23.2867 51.5761C23.4602 52.5787 24.4062 53.25 25.4013 53.0749C25.8844 52.9902 26.2879 52.7203 26.557 52.3525C27.04 52.964 27.5072 53.8279 27.6012 54.9472C27.688 55.9863 27.4219 56.8546 27.1167 57.4836C26.7117 57.0954 26.1375 56.8984 25.5459 57.0035C24.5523 57.1786 23.8869 58.133 24.0605 59.137C24.2341 60.1396 25.18 60.8109 26.1751 60.6358C27.1702 60.4607 27.8341 59.5063 27.6605 58.5022C27.6432 58.3986 27.6143 58.3008 27.581 58.2045C29.8822 57.5128 32.1834 56.8196 34.4861 56.1279L44.9666 59.8638L47.8695 68.3281C46.5475 68.8929 45.1011 69.3613 43.5506 69.6488C30.4868 72.067 14.6445 60.7204 5 41.1607C5.74923 45.9255 7.97522 55.6433 15.6353 64.6651C18.6655 68.2347 24.8951 75.3709 35.6403 78.2065C39.1174 79.1244 46.9756 81.0785 55.7017 77.5308C59.8383 75.8496 63.071 73.3775 65.5747 70.72L70.2465 71.8335L71.9807 77.7935C71.9605 77.7964 71.9388 77.7993 71.9186 77.8037C71.2966 80.3109 70.6761 82.8195 70.0542 85.3267C69.4582 85.1443 68.7871 85.2712 68.2939 85.7251C67.5476 86.4095 67.4926 87.5756 68.171 88.33C68.8493 89.0831 70.005 89.1385 70.7528 88.4541C71.4977 87.7711 71.5541 86.6095 70.8815 85.855C71.3501 85.547 71.9446 85.2975 72.6634 85.2654C73.7193 85.2187 74.7405 85.6521 75.4853 86.4154C75.2597 86.4942 75.0456 86.6197 74.8591 86.7919C74.1127 87.4763 74.0578 88.6423 74.7361 89.3968C75.4145 90.1499 76.5701 90.2053 77.3179 89.5209C78.0643 88.8364 78.1192 87.6704 77.4409 86.9159C77.1834 86.6299 76.858 86.446 76.5108 86.3628C76.735 85.5689 77.208 84.5649 78.2147 83.7929C79.0377 83.1625 79.9069 82.9231 80.5969 82.8458C80.4884 83.3989 80.6301 83.9943 81.0351 84.4438C81.7135 85.1968 82.8692 85.2523 83.6169 84.5678C84.3633 83.8834 84.4182 82.7174 83.7399 81.9629C83.0615 81.2084 81.9044 81.1544 81.1581 81.8388C81.0698 81.9191 80.9932 82.0066 80.9252 82.0986C79.0145 80.5385 77.1024 78.977 75.1917 77.417L74.0939 69.5656L73.9782 68.7411L72.8066 68.0085L69.3498 65.8486C72.1558 61.4312 73.2449 57.5084 73.4156 56.8502C73.6976 55.7397 73.9131 54.6495 74.0664 53.5798ZM70.462 45.7212L67.6994 48.618L70.0932 51.8388L70.2856 52.0986L70.018 52.2868L66.7926 54.5547L68.4834 58.1418L68.6483 58.4906L68.2925 58.6438L64.7083 60.1834L65.5993 64.0142L65.6962 64.4301L65.2767 64.5075L61.467 65.2109L61.4554 69.122L61.4539 69.5744L61.0056 69.5466L57.1032 69.3029L55.4196 73.5292L55.2793 73.8824L54.9134 73.789L50.4961 72.658L47.6207 76.2203L47.3936 76.5019L47.0855 76.3181L43.1528 73.9743L39.4313 76.6377L39.1651 76.8288L38.938 76.5968L35.7068 73.3016L31.424 74.9652L31.1637 75.0659L31.0234 74.8281L28.6542 70.8046L24.0562 71.3913L23.8479 71.4175L23.7886 71.2205L23.0856 68.8899L22.4246 66.6775L17.7557 66.1318L17.6472 66.1186L17.6414 66.0121L17.3767 61.1831L14.3711 59.8156L17.4592 61.0882L17.4924 61.1013L17.4953 61.1393L17.8859 65.8866L22.591 66.3083L22.7139 66.32L22.7544 66.4441L23.5094 68.7586L24.1921 70.8732L28.767 70.1975L28.9551 70.1698L29.0578 70.3376L31.4385 74.2502L35.6649 72.5398L35.8833 72.4522L36.0525 72.6215L39.249 75.8204L42.8997 73.1615L43.1109 73.0068L43.3394 73.141L47.2012 75.4103L50.013 71.9079L50.1837 71.6963L50.4469 71.7634L54.763 72.8565L56.4249 68.6944L56.5406 68.404L56.8501 68.4244L60.615 68.671L60.6382 64.8636L60.6396 64.5119L60.981 64.4506L64.7213 63.7836L63.8853 60.0462L63.813 59.7237L64.1124 59.5982L67.6589 58.1097L66.0549 54.5911L65.9334 54.3241L66.1721 54.1621L69.4047 51.9555L67.1165 48.7698L66.9762 48.5742L67.1426 48.4064L69.9587 45.565L67.0674 42.8083L66.9488 42.6945L67.0384 42.5617L69.3527 39.1584L65.9189 36.9227L65.877 36.895L65.8842 36.8468L66.538 32.4775L66.0404 36.8176L69.6101 39.0067L69.7244 39.0767L69.6492 39.1935L67.442 42.6332L70.4606 45.3811L70.64 45.5446L70.462 45.7212Z" fill="white"/>
</g>
<defs>
<clipPath id="clip0_6270_21086">
<rect width="100" height="100" fill="white"/>
</clipPath>
</defs>
</svg>
