<svg width="100" height="100" viewBox="0 0 100 100" fill="none" xmlns="http://www.w3.org/2000/svg">
<g clip-path="url(#clip0_6281_21249)">
<path d="M23.0453 47.1158C23.0453 47.1158 23.4453 46.1158 22.5453 44.5158C21.6453 42.8158 19.5453 43.3158 18.1453 44.6158C16.7453 45.8158 16.7453 46.2158 16.7453 46.2158C12.5453 48.2158 9.24533 48.1158 4.54533 50.4158C-0.154666 52.7158 2.14533 58.0158 7.44533 60.2158C11.6453 62.0158 20.0453 55.2158 23.1453 52.4158C22.4453 53.3158 21.1453 54.9158 19.6453 56.2158C18.5453 57.1158 16.5453 58.4158 16.5453 58.4158C16.5453 58.4158 20.1453 58.0158 23.8453 55.2158C24.9453 54.3158 24.8453 52.6158 24.4453 51.2158C26.1453 48.1158 23.0453 47.1158 23.0453 47.1158Z" fill="white"/>
<path d="M92.4461 47.1161C87.7461 43.4161 80.1461 40.2161 78.3461 39.5161C77.4461 39.1161 76.8461 38.7161 75.5461 37.7161C73.5461 36.1161 72.2461 34.8161 70.0461 33.4161C57.6461 25.4161 48.9461 33.6161 44.9461 36.3161C40.5461 39.3161 36.8461 37.5161 30.6461 38.1161C26.2461 38.5161 20.7461 42.4161 20.7461 42.4161C24.5461 41.3161 24.6461 46.2161 24.6461 46.2161C27.1461 48.0161 25.6461 51.0161 25.6461 51.0161C26.1461 52.8161 25.0461 55.2161 25.0461 55.2161C25.7461 56.6161 31.5461 58.9161 31.5461 58.9161C36.3461 58.2161 38.8461 53.6161 38.8461 53.6161C39.2461 55.6161 37.2461 58.4161 34.7461 58.9161C32.2461 59.4161 29.7461 64.0161 29.7461 64.0161C31.3461 64.1161 31.0461 67.0161 31.0461 67.0161C33.8461 66.3161 33.8461 68.8161 33.8461 68.8161C35.1461 68.4161 37.2461 69.3161 37.2461 69.3161C37.9461 67.9161 37.6461 65.4161 38.7461 64.0161C39.8461 62.6161 44.0461 60.9161 44.0461 60.9161C50.6461 57.5161 48.7461 50.0161 48.7461 50.0161C48.7461 50.0161 49.9461 51.9161 50.3461 54.2161C50.7461 56.5161 48.2461 58.8161 48.2461 58.8161C56.3461 59.7161 63.6461 54.7161 63.6461 54.7161C64.0461 53.7161 64.4461 51.5161 64.4461 51.5161C63.2461 49.6161 63.1461 45.5161 63.1461 45.5161C63.1461 45.5161 63.1461 45.5161 63.9461 48.0161C64.7461 50.5161 66.4461 52.4161 65.7461 54.0161C65.0461 55.6161 64.6461 56.1161 64.6461 56.1161C62.1461 56.1161 59.0461 58.7161 59.0461 58.7161C61.3461 58.8161 62.4461 62.3161 62.4461 62.3161C64.7461 61.8161 66.4461 63.8161 66.4461 63.8161C68.7461 63.1161 69.8461 64.2161 69.8461 64.2161L69.9461 62.9161C70.2461 62.1161 70.3461 61.3161 70.3461 60.6161C70.4461 59.3161 71.1461 58.2161 72.2461 57.6161C72.7461 57.3161 73.3461 57.0161 74.1461 56.7161C77.1461 55.7161 77.8461 54.1161 77.8461 52.9161C77.8461 52.3161 77.7461 51.8161 77.5461 51.3161C77.5461 51.2161 77.4461 51.2161 77.4461 51.2161C77.1461 50.4161 76.6461 49.7161 76.0461 49.0161C74.7461 47.4161 75.0461 44.1161 75.0461 43.4161C75.0461 43.8161 75.0461 45.4161 77.0461 48.3161C77.6461 49.2161 78.1461 50.1161 78.4461 50.9161C82.5461 50.2161 86.3461 52.7161 88.5461 53.1161C91.6461 53.7161 95.0461 53.2161 96.9461 52.0161C98.8461 50.8161 97.1461 50.8161 92.4461 47.1161ZM29.3461 47.2161C28.7461 47.2161 28.3461 46.7161 28.3461 46.1161C28.3461 45.5161 28.8461 45.1161 29.4461 45.1161C30.0461 45.1161 30.4461 45.6161 30.4461 46.2161C30.4461 46.8161 29.9461 47.2161 29.3461 47.2161Z" fill="white"/>
</g>
<defs>
<clipPath id="clip0_6281_21249">
<rect width="100" height="100" fill="white"/>
</clipPath>
</defs>
</svg>
