<svg width="100" height="100" viewBox="0 0 100 100" fill="none" xmlns="http://www.w3.org/2000/svg">
<g clip-path="url(#clip0_6270_21202)">
<mask id="mask0_6270_21202" style="mask-type:luminance" maskUnits="userSpaceOnUse" x="11" y="15" width="76" height="68">
<path d="M86.7267 15.8945H11.9961V82.8512H86.7267V15.8945Z" fill="#FFFFFF"/>
</mask>
<g mask="url(#mask0_6270_21202)">
<path d="M86.3418 68.6851L74.0054 81.9392C73.7372 82.2272 73.4126 82.4567 73.0523 82.6136C72.6917 82.7705 72.3027 82.8515 71.9096 82.8512H13.4283C13.1492 82.8512 12.8763 82.7696 12.6429 82.6162C12.4096 82.4629 12.226 82.2447 12.1148 81.9884C12.0036 81.7319 11.9695 81.4487 12.0168 81.1731C12.0642 80.8975 12.1908 80.642 12.3812 80.4376L24.727 67.1834C24.9945 66.8961 25.3179 66.6671 25.6773 66.5102C26.0367 66.3533 26.4244 66.2721 26.8165 66.2714H85.2946C85.5735 66.2714 85.8465 66.3531 86.0798 66.5064C86.3134 66.6597 86.4968 66.878 86.6081 67.1345C86.7193 67.3907 86.7532 67.6742 86.706 67.9495C86.6587 68.2251 86.5321 68.4806 86.3418 68.6851ZM74.0054 41.995C73.7372 41.707 73.4126 41.4775 73.0523 41.3206C72.6917 41.1637 72.3027 41.0827 71.9096 41.083H13.4283C13.1492 41.083 12.8763 41.1646 12.6429 41.318C12.4096 41.4713 12.226 41.6895 12.1148 41.9458C12.0036 42.2023 11.9695 42.4855 12.0168 42.7611C12.0642 43.0367 12.1908 43.2922 12.3812 43.4966L24.727 56.7508C24.9945 57.0381 25.3179 57.2671 25.6773 57.424C26.0367 57.5809 26.4244 57.6621 26.8165 57.6628H85.2946C85.5735 57.6628 85.8465 57.5811 86.0798 57.4278C86.3134 57.2745 86.4968 57.0562 86.6081 56.7997C86.7193 56.5435 86.7532 56.26 86.706 55.9847C86.6587 55.7091 86.5321 55.4536 86.3418 55.2491L74.0054 41.995ZM13.4283 32.4743H71.9096C72.3027 32.4745 72.6917 32.3936 73.0523 32.2367C73.4126 32.0799 73.7372 31.8503 74.0054 31.5624L86.3418 18.3082C86.5321 18.1038 86.6587 17.8481 86.706 17.5726C86.7532 17.2971 86.7193 17.0138 86.6081 16.7574C86.4968 16.501 86.3134 16.2828 86.0798 16.1295C85.8465 15.9762 85.5735 15.8945 85.2946 15.8945H26.8165C26.4244 15.8952 26.0367 15.9765 25.6773 16.1333C25.3179 16.2902 24.9945 16.5193 24.727 16.8064L12.3843 30.0606C12.1942 30.2648 12.0676 30.5202 12.0202 30.7954C11.9727 31.0706 12.0065 31.3537 12.1173 31.6099C12.2282 31.8662 12.4112 32.0845 12.6441 32.238C12.877 32.3915 13.1495 32.4736 13.4283 32.4743Z" fill="white"/>
</g>
</g>
<defs>
<clipPath id="clip0_6270_21202">
<rect width="74.7474" height="67.1055" fill="#FFFFFF" transform="translate(11.9961 15.8945)"/>
</clipPath>
</defs>
</svg>
