<svg width="52" height="52" viewBox="0 0 52 52" fill="none" xmlns="http://www.w3.org/2000/svg">
<g clip-path="url(#clip0_131_23703)">
<path d="M7.78352 32.4905C7.90037 32.4999 8.00616 32.4148 8.01956 32.2979L8.18019 31.0024C8.2484 30.453 8.14156 29.8962 7.87413 29.4128C7.60873 28.9314 7.4465 28.4016 7.39438 27.8544C7.36382 27.5355 7.26182 27.2288 7.09302 26.9553L7.07033 26.9173L7.06846 26.9193C6.6876 26.3022 6.3771 25.6419 6.1453 24.9555L6.08027 24.7619C6.02851 24.6144 6.0946 24.4491 6.23384 24.3764C6.42832 24.2727 6.54335 24.063 6.52594 23.8425C6.50927 23.6432 6.44826 23.4534 6.34331 23.2843L5.87585 22.5228C5.69881 22.2361 5.66128 21.8845 5.77259 21.5682L5.83613 21.3856C5.91037 21.1755 5.9355 20.9496 5.90638 20.7276L5.88766 20.5808C5.85861 20.3607 5.87411 20.1371 5.93262 19.9217L6.03247 19.5554C6.04777 19.4928 6.13499 19.4878 6.15843 19.5472L6.27955 19.8455C6.31999 19.9469 6.41942 20.0133 6.52818 20.0134C6.64283 20.0152 6.74287 19.9322 6.76416 19.8189C6.81963 19.5163 6.99872 19.2501 7.25901 19.0839L8.91743 18.0213C8.99721 17.97 9.10229 17.976 9.17436 18.0375C9.2944 18.1381 9.46203 18.1555 9.59933 18.0828L10.9841 17.3594C11.1347 17.2804 11.3065 17.2492 11.4743 17.2705C11.6927 17.2978 11.915 17.2668 12.1159 17.1802L12.3379 17.0852C12.7436 16.912 13.1014 16.6473 13.3848 16.3096C13.4557 16.2256 13.5107 16.1325 13.5518 16.0302L13.6429 15.8021L13.643 15.804C13.7107 15.6309 13.828 15.4833 13.9795 15.3752C14.2032 15.2161 14.2821 14.9185 14.1628 14.6705C14.0747 14.4855 14.1021 14.2672 14.2345 14.1113L14.5423 13.7475L14.5423 13.7495C14.5983 13.6835 14.6806 13.6496 14.7643 13.6544C14.85 13.6611 14.9273 13.705 14.9725 13.7771L15.3749 14.3993C15.42 14.4675 15.5225 14.4562 15.5509 14.3796L15.6734 14.0494L15.6735 14.0513C15.7197 13.9275 15.6817 13.7873 15.576 13.7056L15.4302 13.5924C15.3324 13.5162 15.3101 13.3774 15.3783 13.2741C15.4557 13.155 15.5994 13.0977 15.7385 13.1316L16.0225 13.1993L16.0205 13.1993C16.0734 13.2111 16.1293 13.1994 16.1708 13.165C16.2143 13.1305 16.2377 13.0773 16.2358 13.023C16.2192 12.5484 16.4442 12.0963 16.8369 11.8266L18.1623 10.9055C18.4524 10.7033 18.839 10.7092 19.1242 10.9185L19.8099 11.4241L19.808 11.4241C19.9554 11.5315 20.1322 11.5893 20.3128 11.5888L20.6876 11.5893L20.6877 11.5912C20.8742 11.5906 21.0571 11.654 21.2046 11.7672C21.2487 11.8025 21.3052 11.8102 21.359 11.7909C21.4108 11.7735 21.448 11.7276 21.4598 11.6749C21.4948 11.5107 21.4403 11.34 21.316 11.2279C21.2057 11.129 21.1941 10.9625 21.2892 10.8487L21.7887 10.2512L21.7888 10.2532C21.8969 10.1233 21.8864 9.93164 21.7638 9.81372C21.7256 9.77626 21.7042 9.72269 21.7081 9.66825C21.7102 9.61385 21.7376 9.56441 21.7811 9.53185L22.258 9.17187C22.5986 8.91557 23.0217 8.79798 23.4447 8.84141L23.5384 8.85172L23.5364 8.85179C23.8443 8.88176 24.1397 8.72015 24.2777 8.44571L24.4176 8.16733L24.4176 8.16539C24.4719 8.05487 24.6041 8.0037 24.7221 8.04807L25.9643 8.52455L25.9624 8.52462C26.4486 8.71132 26.9799 8.74512 27.4867 8.62462L27.9565 8.51317L27.9565 8.51123C28.099 8.47716 28.2501 8.52231 28.3509 8.62742C28.4536 8.73246 28.4748 8.89272 28.4015 9.02135L27.2383 11.0812L27.2403 11.0812C27.1304 11.2731 27.1952 11.5153 27.3837 11.6309L31.1772 13.9192C31.445 14.0806 31.7688 14.1216 32.0686 14.0316C32.4338 13.9238 32.7149 13.6308 32.8089 13.2629L32.8996 12.9086L32.8995 12.9067C33.1452 11.936 33.2267 10.9303 33.1394 9.93244L33.1109 9.61919C33.0915 9.39487 33.1769 9.17269 33.3424 9.01949L33.3725 8.99129C33.4158 8.95098 33.4332 8.89217 33.4215 8.83634C33.4098 8.78049 33.3675 8.73542 33.3125 8.71795C33.2653 8.70214 33.2272 8.66661 33.2062 8.62079C33.1851 8.57497 33.1853 8.52259 33.205 8.47729L33.7566 7.19525C33.8013 7.08894 33.9239 7.03617 34.034 7.07694C34.1638 7.12478 34.2626 7.22995 34.3043 7.36234L35.2499 10.4154C35.287 10.5344 35.4081 10.6077 35.5295 10.5822C35.8479 10.5206 36.175 10.6042 36.425 10.8089C36.711 11.0452 36.8955 11.3802 36.9433 11.7471L36.9834 12.0599C37.0343 12.4596 37.2295 12.8252 37.534 13.0901C37.7063 13.2392 37.7996 13.461 37.786 13.6884L37.7558 14.2675C37.7433 14.5221 37.7949 14.7763 37.9078 15.0051C38.0061 15.2054 38.1804 15.3584 38.3926 15.4285C38.9233 15.6079 39.4308 15.8501 39.9016 16.1498L40.2929 16.3999L40.2949 16.3999C40.3982 16.468 40.4473 16.5943 40.4127 16.7119C40.3816 16.8255 40.3955 16.9453 40.4535 17.048L41.2051 18.3815C41.3439 18.6288 41.6038 18.7866 41.8876 18.7941L42.1578 18.8021C42.4437 18.8116 42.673 19.0402 42.6829 19.325C42.697 19.7279 42.8773 20.1057 43.1818 20.3705L44.1952 21.2507L44.1972 21.2506C44.5918 21.5937 44.8397 22.0758 44.887 22.5959L44.9585 23.3655L44.9586 23.3675C44.9936 23.7581 45.1253 24.1355 45.3388 24.4656C45.6016 24.8696 45.6829 25.3653 45.5652 25.8329L45.0907 27.7039L45.0886 27.7021C45.0718 27.7744 45.0782 27.8479 45.1078 27.9167C45.1752 28.0696 45.1833 28.2439 45.1307 28.4047L44.8016 29.3822C44.6995 29.6864 44.5069 29.9531 44.2515 30.1482C43.9015 30.4146 43.6365 30.7768 43.4897 31.1913L42.8234 33.0767C42.6412 33.5912 42.522 34.1249 42.4652 34.6661L42.3479 35.8128C42.3317 35.9588 42.2547 36.0934 42.1354 36.1791C41.9364 36.3197 41.7022 36.3979 41.4597 36.4064L41.0911 36.4192C40.6701 36.4339 40.2681 36.603 39.9637 36.895L39.4958 37.342C39.3774 37.4567 39.2186 37.5243 39.0538 37.53L38.3863 37.5533C38.1983 37.5599 38.0089 37.5316 37.83 37.4718L37.3998 37.3298C37.0441 37.2122 36.6522 37.2803 36.3553 37.5098L36.221 37.6134L36.2209 37.6114C36.0622 37.7354 35.8557 37.7736 35.6633 37.7144L34.1812 37.2657L33.445 37.0354C33.1995 36.9586 32.9845 36.8071 32.8297 36.601L32.2818 35.8734C32.1821 35.743 32.1566 35.5712 32.2114 35.418C32.2806 35.2294 32.2404 35.0213 32.1108 34.8707L31.4611 34.1193C31.3356 33.9744 31.1355 33.9154 30.951 33.9703L30.828 34.0076L30.8299 34.0075C30.7761 34.0231 30.7193 34.0075 30.683 33.9681C30.6465 33.9267 30.6347 33.8689 30.6544 33.8177L30.9004 33.1884C30.9537 33.0469 30.9229 32.887 30.82 32.7762C30.6402 32.5769 30.5688 32.3136 30.3945 32.3817C30.2622 32.4329 30.1968 33.0618 30.1768 33.3242C30.1714 33.3924 30.121 33.4485 30.0535 33.4624L29.527 33.57C29.4827 33.5793 29.4377 33.5693 29.4037 33.5414C29.3678 33.5135 29.3469 33.4735 29.3453 33.429L29.3384 33.2314C29.3369 33.1868 29.3529 33.1455 29.3849 33.1133C29.4147 33.0813 29.457 33.0643 29.4996 33.0628L29.7462 33.062C29.8104 33.0617 29.8629 33.0114 29.8666 32.9472L29.9066 32.2591C29.9135 32.127 29.9734 32.0026 30.0732 31.9158L30.2107 31.7927C30.2993 31.7159 30.3301 31.5945 30.2932 31.4833L30.2435 31.3396L30.2455 31.3395C30.2174 31.259 30.2413 31.1689 30.3055 31.1124C30.3847 31.0436 30.4059 30.9304 30.3599 30.837C30.3142 30.7494 30.223 30.6963 30.1241 30.7017C30.0272 30.707 29.94 30.7683 29.9044 30.8607L29.6834 31.429L29.6853 31.4289C29.5997 31.6472 29.427 31.818 29.2066 31.9015C28.965 31.9933 28.7675 32.1728 28.6531 32.4038L28.3191 33.0691C28.2917 33.1225 28.2407 33.163 28.1809 33.1767C28.1232 33.1904 28.0605 33.1771 28.0107 33.1401C27.9009 33.0546 27.8268 32.9331 27.7988 32.7982L27.6817 32.2263L27.6798 32.2264C27.6515 32.0857 27.5714 31.9604 27.4578 31.8772C27.3263 31.7809 27.2358 31.6386 27.2012 31.4808C27.1686 31.3247 27.0211 31.2193 26.8606 31.2385C26.7929 31.2467 26.7261 31.2257 26.6722 31.183C26.6202 31.1402 26.5869 31.0773 26.5825 31.0076L26.5683 30.822C26.5526 30.5955 26.4386 30.3862 26.257 30.2489C26.0235 30.0729 25.7386 29.9761 25.4454 29.9766L25.1112 29.9767L25.1112 29.9747C24.7869 29.9744 24.4675 29.8924 24.1843 29.7375C23.7269 29.4858 23.1974 29.3937 22.6817 29.4776C21.9091 29.6017 21.1579 29.8315 20.4487 30.1608L19.9403 30.3959C19.6937 30.5092 19.4216 30.5594 19.151 30.5398C18.6836 30.5038 18.218 30.6306 17.8311 30.8962L17.3626 31.2191L17.3626 31.2171C17.2678 31.2826 17.1544 31.3175 17.0378 31.3158C16.7871 31.311 16.5571 31.4548 16.4524 31.6815L16.2645 32.0857C16.1417 32.3518 15.8759 32.5241 15.5829 32.5323L12.7185 32.5956C12.5031 32.6011 12.3031 32.7129 12.189 32.8952C12.0454 33.1195 11.8036 33.258 11.5378 33.2672C11.4525 33.2702 11.3743 33.3117 11.3222 33.3775C10.9655 33.8399 10.4054 34.0981 9.82375 34.0699C9.53639 34.0723 9.24844 34.0571 8.96369 34.0243C8.72177 33.8815 8.5057 33.7009 8.32354 33.49C8.21889 33.385 8.07505 33.326 7.92568 33.3312C7.83257 33.3344 7.74393 33.2988 7.68136 33.2312C7.61879 33.1635 7.59033 33.0714 7.60073 32.9798L7.62707 32.622C7.63154 32.5831 7.64971 32.5476 7.67801 32.5233C7.70823 32.499 7.74452 32.486 7.78352 32.4905Z" fill="#00833E"/>
<path d="M39.2831 43.8977C38.9447 43.8862 38.6372 43.7011 38.4677 43.4083L37.8849 42.4026L37.8869 42.4044C37.8291 42.3056 37.8095 42.1918 37.827 42.0806C37.849 41.9305 37.8126 41.7785 37.7249 41.6575L37.6534 41.559L37.6515 41.5591C37.4392 41.264 37.3183 40.9133 37.3055 40.5491C37.3019 40.4463 37.349 40.3497 37.4343 40.2904C37.5178 40.2312 37.626 40.2177 37.7225 40.2552L38.0711 40.3923L38.0691 40.3924C38.6402 40.6168 39.2733 40.62 39.8464 40.4001L40.4042 40.1867L40.4061 40.1866C40.5325 40.1376 40.6769 40.1558 40.7885 40.2353C40.886 40.3037 40.9424 40.4161 40.9387 40.5346L40.9171 41.1366L40.9171 41.1386C40.9 41.6474 40.7679 42.1467 40.5331 42.601C40.4222 42.8144 40.2953 43.0187 40.1505 43.2119L39.8331 43.6341L39.8312 43.6342C39.7032 43.8075 39.4968 43.9039 39.2831 43.8977Z" fill="#00833E"/>
</g>
<defs>
<clipPath id="clip0_131_23703">
<rect width="50" height="50" fill="white" transform="translate(0 1.74512) rotate(-2)"/>
</clipPath>
</defs>
</svg>
