<svg width="71" height="63" viewBox="0 0 71 63" fill="none" xmlns="http://www.w3.org/2000/svg">
<path d="M69.9952 49.6716L58.3794 62.1403C58.1282 62.4111 57.8239 62.6273 57.4856 62.7752C57.1473 62.9231 56.7821 62.9997 56.4129 63H1.3496C1.08698 62.9999 0.830097 62.9231 0.610408 62.779C0.390725 62.6349 0.217774 62.4299 0.112728 62.1889C0.00768155 61.9479 -0.0248976 61.6815 0.0189826 61.4223C0.0628628 61.1631 0.181288 60.9223 0.359772 60.7294L11.9624 48.2607C12.2137 47.9899 12.5179 47.7737 12.8563 47.6258C13.1946 47.478 13.5598 47.4014 13.9289 47.401H68.9922C69.257 47.3955 69.5179 47.4687 69.7415 47.6112C69.965 47.7537 70.142 47.9593 70.2488 48.2019C70.3563 48.4447 70.3891 48.7138 70.3439 48.9753C70.2987 49.2368 70.1774 49.4791 69.9952 49.6716ZM58.3794 24.557C58.1272 24.2874 57.8228 24.0722 57.4846 23.9243C57.1465 23.7766 56.7818 23.6993 56.4129 23.6974H1.3496C1.08698 23.6975 0.830097 23.7743 0.610408 23.9184C0.390725 24.0625 0.217774 24.2676 0.112728 24.5085C0.00768155 24.7495 -0.0248976 25.0159 0.0189826 25.2751C0.0628628 25.5343 0.181288 25.7752 0.359772 25.968L11.9624 38.4433C12.2146 38.7129 12.5191 38.9281 12.8572 39.076C13.1953 39.2238 13.56 39.301 13.9289 39.3029H68.9922C69.2544 39.3015 69.5101 39.2238 69.729 39.0793C69.948 38.9347 70.1197 38.7295 70.2239 38.4888C70.3282 38.2481 70.3603 37.9822 70.3157 37.7236C70.2718 37.465 70.1538 37.2248 69.9755 37.0324L58.3794 24.557ZM1.3496 15.5993H56.4129C56.7821 15.5989 57.1473 15.5223 57.4856 15.3744C57.8239 15.2266 58.1282 15.0104 58.3794 14.7396L69.9952 2.2709C70.1774 2.07831 70.2987 1.83601 70.3439 1.57451C70.3891 1.313 70.3563 1.04396 70.2488 0.801238C70.142 0.558519 69.965 0.352967 69.7415 0.210448C69.5179 0.0679277 69.257 -0.00519283 68.9922 0.000286913H13.9289C13.5598 0.000675963 13.1946 0.077211 12.8563 0.22512C12.5179 0.373028 12.2137 0.589138 11.9624 0.859972L0.359772 13.3286C0.181288 13.5215 0.0628628 13.7624 0.0189826 14.0216C-0.0248976 14.2808 0.00768155 14.5472 0.112728 14.7881C0.217774 15.0291 0.390725 15.2342 0.610408 15.3782C0.830097 15.5223 1.08698 15.5991 1.3496 15.5993Z" fill="#FECE00"/>
</svg>
