<svg width="292" height="292" viewBox="0 0 292 292" fill="none" xmlns="http://www.w3.org/2000/svg">
<rect width="292" height="292" fill="#00833E"/>
<path d="M193 242C210.673 242 225 227.673 225 210C225 192.327 210.673 178 193 178C175.327 178 161 192.327 161 210C161 227.673 175.327 242 193 242Z" fill="#001B69"/>
<path d="M176.9 197.199L193.9 206.799V204.699L180.7 197.199H176.9Z" fill="#EC2024"/>
<path d="M176.901 187.6L193.801 178H193.001C191.901 178 190.901 178 189.801 178.2L173.101 187.6H176.901Z" fill="#EC2024"/>
<path d="M193.9 195.301H171V206.801H172.7V198.001L188.2 206.801H193.9L176.9 197.201H180.7L193.9 204.701V203.601L182.6 197.201H193.9V195.301Z" fill="white"/>
<path d="M164.6 195.301C164.3 195.901 164 196.601 163.7 197.201H163.8H163.6C163.4 197.801 163.2 198.201 163 198.701L164.2 198.001V206.801H165.9V195.301H164.6Z" fill="white"/>
<path d="M193.901 178L177.001 187.6H173.201L189.901 178.2C189.101 178.2 188.201 178.4 187.401 178.6L172.801 186.9V185.4C172.201 185.9 171.701 186.4 171.101 186.9V189.7H194.001V187.8H182.701L194.001 181.4V178H193.901Z" fill="white"/>
<path d="M165.901 206.799H171.001V195.299H193.901V189.499H171.001V186.699C168.401 189.199 166.201 191.999 164.601 195.199H165.901V206.699V206.799Z" fill="#EC2024"/>
<path d="M210.101 220.4L210.601 222L212.201 221.4L211.301 222.8L212.701 223.7H211.001C211.001 223.8 211.201 225.5 211.201 225.5L210.001 224.3L208.801 225.5L209.001 223.8H207.301C207.301 223.7 208.701 222.8 208.701 222.8L207.801 221.4L209.401 222L209.901 220.4H210.101Z" fill="white"/>
<path d="M200.7 205.6L201.2 207.2L202.8 206.6L201.9 208L203.3 208.9H201.6C201.6 209 201.8 210.7 201.8 210.7L200.6 209.5L199.4 210.7L199.6 209H197.9C197.9 208.9 199.3 208 199.3 208L198.4 206.6L200 207.2L200.5 205.6H200.7Z" fill="white"/>
<path d="M210.101 195.5L210.601 197.1L212.201 196.5L211.301 197.9L212.701 198.8H211.001C211.001 198.9 211.201 200.6 211.201 200.6L210.001 199.4L208.801 200.6L209.001 198.9H207.301C207.301 198.8 208.701 197.9 208.701 197.9L207.801 196.5L209.401 197.1L209.901 195.5H210.101Z" fill="white"/>
<path d="M218.401 203.1L218.901 204.7L220.501 204.1L219.601 205.5L221.001 206.4H219.301C219.301 206.5 219.501 208.2 219.501 208.2L218.301 207L217.101 208.2L217.301 206.5H215.601C215.601 206.4 217.001 205.5 217.001 205.5L216.101 204.1L217.701 204.7L218.201 203.1H218.401Z" fill="white"/>
<path d="M213.8 210.6L214.2 211.6H215.3L214.5 212.4L214.8 213.4L213.9 212.8L213 213.4L213.3 212.4L212.5 211.7H213.6L214 210.6H213.8Z" fill="white"/>
<path d="M175.9 214.301L177.1 218.001L180.7 216.601L178.6 219.801L181.9 221.801L178 222.101L178.5 225.901L175.8 223.101L173.1 225.901L173.6 222.101L169.7 221.801L173 219.801L170.9 216.601L174.5 218.001L175.7 214.301H175.9Z" fill="white"/>
<path d="M76 116.4C76 135.6 89.9 142.7 105.3 145H76V200H104.2C132.6 200 135.9 187.5 135.9 175.6C135.9 163.7 125.8 150.9 110.2 147H135.9V92H107.7C79.3 92 76 104.5 76 116.4Z" fill="#FECE00"/>
<path d="M187.2 167.9V148H188.8C204.4 148 217 135.5 217 120V108.6H187.2V92H144.8L145.3 159.5C145.3 170.6 147.4 182.4 155.3 190.3C161.5 178.3 173.3 169.7 187.2 167.9Z" fill="#FECE00"/>
</svg>
