<svg width="518" height="77" viewBox="0 0 518 77" fill="none" xmlns="http://www.w3.org/2000/svg">
<mask id="mask0_130_11879" style="mask-type:luminance" maskUnits="userSpaceOnUse" x="0" y="0" width="518" height="77">
<path d="M517.354 0H0V76.8824H517.354V0Z" fill="white"/>
</mask>
<g mask="url(#mask0_130_11879)">
<path d="M86.917 60.6172L72.7258 75.8335C72.4188 76.1641 72.0472 76.4279 71.6338 76.6083C71.2204 76.7888 70.7743 76.8823 70.3232 76.8827H3.05118C2.73033 76.8825 2.41649 76.7888 2.14809 76.6129C1.8797 76.4371 1.6684 76.1869 1.54007 75.8928C1.41173 75.5987 1.37193 75.2737 1.42554 74.9573C1.47914 74.641 1.62383 74.3471 1.84189 74.1117L16.0171 58.8954C16.324 58.565 16.6957 58.3012 17.1091 58.1206C17.5224 57.9402 17.9686 57.8467 18.4196 57.8463H85.6917C86.0152 57.8396 86.334 57.9288 86.6071 58.1028C86.8802 58.2767 87.0964 58.5276 87.2269 58.8237C87.3583 59.12 87.3983 59.4483 87.3431 59.7674C87.2878 60.0866 87.1397 60.3823 86.917 60.6172ZM72.7258 29.9684C72.4177 29.6394 72.0457 29.3767 71.6326 29.1963C71.2196 29.0159 70.774 28.9217 70.3232 28.9194H3.05118C2.73033 28.9195 2.41649 29.0132 2.14809 29.1891C1.8797 29.3649 1.6684 29.6152 1.54007 29.9092C1.41173 30.2033 1.37193 30.5284 1.42554 30.8447C1.47914 31.161 1.62383 31.455 1.84189 31.6903L16.0171 46.9146C16.3252 47.2436 16.6972 47.5063 17.1102 47.6867C17.5233 47.8671 17.9689 47.9614 18.4196 47.9637H85.6917C86.012 47.962 86.3244 47.8671 86.5919 47.6908C86.8594 47.5143 87.0692 47.264 87.1965 46.9702C87.3238 46.6765 87.3631 46.352 87.3086 46.0363C87.255 45.7207 87.1108 45.4276 86.893 45.1928L72.7258 29.9684ZM3.05118 19.0367H70.3232C70.7743 19.0363 71.2204 18.9428 71.6338 18.7623C72.0472 18.5819 72.4188 18.3181 72.7258 17.9876L86.917 2.77132C87.1397 2.53628 87.2878 2.2406 87.3431 1.92146C87.3983 1.60233 87.3583 1.274 87.2269 0.977798C87.0964 0.681593 86.8802 0.430746 86.6071 0.256822C86.334 0.0828962 86.0152 -0.00633712 85.6917 0.000350137H18.4196C17.9686 0.000824918 17.5224 0.0942251 17.1091 0.274727C16.6957 0.455229 16.324 0.71896 16.0171 1.04947L1.84189 16.2657C1.62383 16.5011 1.47914 16.795 1.42554 17.1114C1.37193 17.4277 1.41173 17.7528 1.54007 18.0468C1.6684 18.3409 1.8797 18.5912 2.14809 18.767C2.41649 18.9428 2.73033 19.0365 3.05118 19.0367Z" fill="black"/>
<path d="M168.933 32.5151H132.943V20.6624H178.287V8.80974H132.822C131.269 8.80133 129.73 9.09893 128.291 9.68556C126.853 10.2723 125.543 11.1365 124.44 12.2289C123.335 13.3214 122.457 14.6207 121.855 16.0525C121.252 17.4845 120.938 19.021 120.93 20.5743V32.5872C120.936 34.1419 121.248 35.6802 121.85 37.1139C122.451 38.5477 123.329 39.8488 124.433 40.943C125.539 42.0372 126.848 42.9028 128.287 43.4905C129.726 44.0782 131.268 44.3763 132.822 44.3678H168.861V56.2205H121.787V68.0732H168.933C170.487 68.0817 172.026 67.784 173.464 67.1974C174.903 66.6107 176.212 65.7465 177.316 64.654C178.42 63.5616 179.299 62.2624 179.901 60.8304C180.503 59.3985 180.818 57.862 180.826 56.3086V44.2958C180.819 42.741 180.507 41.2028 179.906 39.7691C179.304 38.3353 178.426 37.0341 177.322 35.94C176.217 34.8459 174.908 33.9802 173.468 33.3926C172.029 32.8049 170.488 32.5067 168.933 32.5151Z" fill="black"/>
<path d="M238.655 8.80996H202.528C200.972 8.79731 199.429 9.09178 197.987 9.67657C196.545 10.2614 195.232 11.1248 194.125 12.2178C193.017 13.3106 192.136 14.6113 191.532 16.0453C190.927 17.4793 190.612 19.0185 190.604 20.5746V56.3088C190.612 57.8649 190.927 59.4041 191.532 60.8381C192.136 62.2721 193.017 63.5728 194.125 64.6656C195.232 65.7586 196.545 66.622 197.987 67.2068C199.429 67.7916 200.972 68.0861 202.528 68.0734H238.655C240.209 68.0819 241.748 67.7843 243.186 67.1976C244.625 66.6109 245.934 65.7467 247.038 64.6543C248.142 63.5618 249.02 62.2625 249.623 60.8306C250.225 59.3987 250.54 57.8622 250.548 56.3088V20.5746C250.54 19.0212 250.225 17.4847 249.623 16.0528C249.02 14.6209 248.142 13.3216 247.038 12.2291C245.934 11.1367 244.625 10.2725 243.186 9.68578C241.748 9.09915 240.209 8.80155 238.655 8.80996ZM238.567 56.2207H202.616V20.6627H238.551L238.567 56.2207Z" fill="black"/>
<path d="M365.191 8.80947H329.953C328.4 8.80106 326.86 9.09866 325.422 9.68529C323.984 10.272 322.674 11.1362 321.571 12.2287C320.466 13.3211 319.588 14.6204 318.986 16.0523C318.383 17.4842 318.069 19.0207 318.061 20.5741V68.0729H330.073V48.6041H365.151V68.0729H377.164V20.5741C377.156 19.0139 376.839 17.4708 376.232 16.0336C375.624 14.5965 374.739 13.2936 373.626 12.2001C372.513 11.1066 371.195 10.244 369.747 9.66214C368.299 9.08024 366.751 8.79049 365.191 8.80947ZM365.103 36.7514H330.025V20.6622H365.103V36.7514Z" fill="black"/>
<path d="M505.461 8.80974H470.223C468.669 8.80133 467.13 9.09893 465.692 9.68556C464.253 10.2723 462.945 11.1365 461.84 12.2289C460.736 13.3214 459.857 14.6207 459.255 16.0525C458.653 17.4845 458.338 19.021 458.33 20.5743V68.0732H470.343V48.6044H505.34V68.0732H517.353V20.5743C517.345 19.021 517.031 17.4845 516.428 16.0525C515.826 14.6207 514.948 13.3214 513.843 12.2289C512.739 11.1365 511.43 10.2723 509.992 9.68556C508.553 9.09893 507.014 8.80133 505.461 8.80974ZM505.34 36.7517H470.263V20.6624H505.34V36.7517Z" fill="black"/>
<path d="M435.667 56.2205H430.862L413.684 13.775C413.095 12.3106 412.082 11.0556 410.775 10.171C409.468 9.28626 407.926 8.81224 406.348 8.80967H395.688C394.652 8.80439 393.625 9.00324 392.667 9.39478C391.707 9.7864 390.835 10.363 390.098 11.0918C389.362 11.8207 388.777 12.6873 388.376 13.6424C387.974 14.5974 387.765 15.6222 387.76 16.6581V68.0732H399.773V20.6624H404.578L421.748 63.1078C422.346 64.5694 423.368 65.8193 424.68 66.698C425.992 67.5768 427.537 68.0443 429.116 68.0411H439.775C440.812 68.0464 441.839 67.8476 442.797 67.456C443.757 67.0645 444.629 66.4878 445.365 65.759C446.101 65.0302 446.687 64.1635 447.088 63.2085C447.489 62.2534 447.698 61.2287 447.704 60.1927V8.80967H435.667V56.2205Z" fill="black"/>
<path d="M273.173 8.80957H261.16V56.3084C261.168 57.8652 261.485 59.405 262.089 60.8395C262.694 62.2741 263.576 63.5751 264.684 64.6681C265.792 65.7611 267.107 66.6245 268.549 67.2088C269.992 67.7931 271.536 68.0867 273.093 68.0731H309.132V56.2204H273.173V8.80957Z" fill="black"/>
</g>
</svg>
